<?xml version="1.0" standalone="no"?>
<!DOCTYPE svg PUBLIC "-//W3C//DTD SVG 20010904//EN"
 "http://www.w3.org/TR/2001/REC-SVG-20010904/DTD/svg10.dtd">
<svg version="1.0" xmlns="http://www.w3.org/2000/svg"
 width="397.000000pt" height="397.000000pt" viewBox="0 0 397.000000 397.000000"
 preserveAspectRatio="xMidYMid meet">
<metadata>
Created by potrace 1.14, written by Peter Selinger 2001-2017
</metadata>
<g transform="translate(0.000000,397.000000) scale(0.100000,-0.100000)"
fill="#000000" stroke="none">
<path d="M1655 3936 c-204 -36 -332 -77 -515 -163 -220 -104 -365 -207 -551
-392 -174 -174 -273 -310 -374 -512 -142 -281 -206 -556 -206 -884 0 -277 42
-496 142 -744 188 -471 589 -882 1048 -1075 534 -225 1117 -215 1634 28 397
185 743 528 934 926 322 667 245 1471 -196 2049 -327 428 -755 685 -1286 771
-175 29 -453 27 -630 -4z m523 -171 c61 -8 121 -17 134 -20 13 -2 35 -7 50 -9
15 -3 42 -9 60 -15 18 -5 71 -17 118 -26 122 -24 164 -39 330 -119 338 -164
688 -589 806 -979 36 -118 59 -245 72 -392 8 -96 7 -346 -2 -405 -3 -19 -8
-47 -10 -61 -18 -114 -66 -313 -78 -317 -4 -2 -8 -11 -8 -20 0 -9 -12 -48 -27
-87 -14 -38 -26 -84 -27 -102 -1 -18 -7 -38 -14 -45 -6 -6 -12 -17 -12 -22 0
-6 -16 -38 -37 -71 -20 -33 -37 -61 -37 -62 -3 -5 -56 -11 -56 -6 0 11 43 128
51 138 12 17 22 85 12 85 -5 0 -17 -24 -28 -53 -26 -76 -99 -219 -130 -255
-16 -19 -32 -29 -41 -25 -12 4 -13 8 -3 13 7 5 13 24 13 44 1 26 11 47 34 71
17 19 28 35 25 35 -4 0 -2 5 5 12 7 7 12 25 12 41 0 19 10 38 30 57 24 22 32
40 37 79 4 35 14 58 34 81 28 30 40 80 19 80 -5 0 -10 15 -10 34 0 28 4 35 25
40 21 5 25 12 25 46 0 22 -4 40 -10 40 -5 0 -10 16 -10 35 0 32 7 40 33 36 15
-2 7 79 -8 85 -9 4 -15 19 -15 39 0 25 5 34 21 38 19 5 21 11 15 39 -3 18 -10
34 -14 36 -23 8 -29 20 -25 50 3 18 11 32 19 32 9 0 14 12 14 36 0 27 -5 37
-20 41 -11 3 -20 14 -20 24 0 11 -4 19 -10 19 -18 0 -10 22 10 27 27 7 25 70
-2 79 -10 3 -18 13 -18 22 0 15 -2 15 -10 2 -8 -12 -10 -9 -10 11 0 17 9 32
22 41 20 13 21 19 13 44 -8 21 -17 29 -35 29 -40 0 -52 43 -20 73 16 14 19 26
14 51 -6 29 -9 31 -39 27 -27 -5 -34 -1 -43 19 -10 22 -8 27 12 40 19 13 22
21 17 48 -6 29 -10 32 -39 29 -26 -3 -32 0 -32 17 0 10 -6 21 -12 24 -10 3 -8
10 5 25 17 18 17 24 5 48 -9 20 -21 28 -38 29 -14 0 -26 4 -27 9 -1 5 -7 12
-13 16 -9 6 -9 13 0 30 9 17 9 28 0 51 -13 31 -15 32 -45 20 -43 -18 -75 30
-40 59 21 17 19 32 -6 54 -18 15 -26 16 -49 6 -25 -10 -31 -9 -49 9 -20 20
-20 23 -6 44 19 28 19 41 0 33 -9 -3 -18 1 -22 9 -3 10 -12 13 -23 10 -10 -3
-30 -3 -45 1 -24 6 -27 10 -22 40 5 30 2 36 -23 49 -25 13 -30 13 -44 0 -19
-19 -23 -19 -48 4 -13 13 -18 26 -14 37 5 12 -2 25 -20 41 l-27 22 -26 -20
c-22 -18 -26 -19 -29 -5 -2 9 -10 16 -19 16 -11 0 -14 7 -10 25 3 21 -1 29
-26 42 -29 14 -31 14 -47 -7 -22 -29 -47 -21 -56 17 -10 48 -12 50 -39 57 -21
5 -31 2 -42 -14 -15 -21 -43 -28 -43 -10 0 6 -7 10 -15 10 -10 0 -15 11 -15
35 0 33 -2 35 -31 35 -18 0 -37 -7 -43 -16 -8 -11 -20 -13 -39 -9 -22 6 -27
13 -27 37 0 29 -1 30 -35 24 -25 -5 -35 -3 -36 6 0 7 -5 0 -11 -15 -8 -24 -15
-28 -42 -25 -23 2 -32 8 -34 26 -3 18 -10 22 -36 22 -25 0 -35 -6 -44 -25 -16
-35 -59 -34 -72 1 -9 23 -14 25 -62 22 l-53 -3 -3 -42 c-3 -41 -4 -43 -37 -43
-29 0 -34 4 -40 29 -8 39 -24 50 -57 44 -26 -5 -28 -9 -28 -49 0 -31 -4 -44
-14 -44 -8 0 -21 -3 -29 -6 -11 -4 -20 8 -32 41 -17 42 -21 46 -49 43 -31 -3
-31 -4 -29 -55 2 -47 0 -51 -24 -58 -27 -6 -31 -3 -59 48 -10 19 -21 27 -30
23 -9 -3 -24 -6 -34 -6 -16 0 -17 -5 -9 -37 12 -55 11 -61 -13 -74 -19 -10
-25 -8 -49 20 -50 60 -99 24 -69 -50 10 -23 10 -32 0 -44 -18 -22 -28 -19 -66
20 -27 28 -39 34 -58 29 -34 -8 -38 -26 -19 -78 15 -39 15 -46 2 -59 -13 -13
-20 -11 -53 19 -39 35 -56 42 -56 24 0 -5 -7 -10 -15 -10 -26 0 -29 -30 -5
-62 16 -22 19 -33 11 -41 -6 -6 -11 -7 -11 -1 0 5 -5 2 -10 -6 -8 -12 -13 -13
-27 -2 -45 31 -62 36 -88 22 -31 -17 -32 -34 -1 -66 20 -23 22 -30 13 -55
l-11 -28 -49 27 -49 26 -19 -24 c-24 -33 -24 -34 11 -70 34 -35 36 -43 15 -60
-13 -11 -24 -9 -61 9 -51 26 -71 23 -80 -14 -5 -20 0 -33 19 -53 19 -19 25
-34 20 -50 -6 -26 -20 -28 -59 -7 -36 19 -64 19 -64 1 0 -7 -7 -19 -15 -26
-23 -19 -19 -27 25 -52 40 -23 48 -40 31 -67 -7 -11 -16 -11 -55 2 -46 16 -46
16 -62 -8 -22 -34 -14 -57 25 -77 41 -21 61 -38 42 -38 -8 0 -10 -7 -6 -21 6
-19 4 -20 -32 -13 -39 8 -72 8 -79 1 -2 -2 -7 -18 -10 -36 -6 -30 -4 -32 35
-48 36 -14 57 -43 31 -43 -5 0 -7 -7 -4 -15 5 -12 -2 -15 -40 -14 -52 2 -51 3
-60 -34 -6 -24 -2 -30 24 -45 41 -23 43 -69 3 -74 -20 -2 -30 -11 -37 -31 -12
-34 1 -59 35 -67 17 -4 25 -14 27 -33 3 -23 -1 -28 -28 -33 -17 -4 -35 -15
-40 -25 -14 -24 4 -69 28 -69 47 0 57 -53 12 -69 -21 -7 -30 -17 -30 -31 0
-31 18 -60 38 -60 10 0 22 -12 28 -29 10 -26 9 -30 -16 -44 -22 -13 -26 -21
-22 -48 3 -23 12 -35 33 -42 35 -14 43 -43 18 -68 -29 -29 -21 -92 13 -95 7 0
19 -2 26 -2 17 -3 15 -43 -3 -70 -14 -19 -14 -24 0 -52 9 -18 23 -30 35 -30
26 0 48 -45 34 -68 -17 -27 15 -88 43 -84 33 5 49 -34 30 -70 l-14 -27 -21 20
c-12 11 -29 34 -39 52 -30 58 -24 12 8 -59 71 -159 60 -150 -40 28 -155 278
-246 548 -272 807 -14 139 -1 345 31 501 58 282 232 659 379 820 28 30 50 50
51 43 0 -6 -5 -15 -10 -18 -6 -3 -10 -11 -10 -17 0 -6 6 -6 15 2 8 7 28 20 45
29 16 9 45 31 64 49 20 17 38 32 41 32 3 0 11 5 18 11 38 33 163 119 181 125
11 4 23 9 26 13 11 13 51 31 70 31 11 0 20 4 20 8 0 4 30 24 68 43 37 18 71
40 75 47 4 6 13 12 18 12 6 0 17 7 25 15 9 8 11 15 5 15 -23 0 -119 -22 -155
-36 -55 -21 -54 -12 1 19 115 62 379 137 553 156 206 24 278 25 418 6z m-649
-692 c6 -10 11 -12 11 -5 0 19 28 14 40 -7 5 -11 10 -69 10 -128 0 -124 -9
-146 -47 -111 -21 19 -23 30 -23 112 l0 91 -107 -3 c-107 -3 -153 2 -153 16 0
5 9 18 20 30 19 20 31 22 130 22 93 0 110 -3 119 -17z m410 7 c8 -5 9 -14 2
-33 -10 -27 -11 -27 -115 -27 -142 0 -194 23 -127 56 24 12 222 16 240 4z m61
-19 c11 -22 14 -244 3 -254 -4 -4 -19 5 -35 20 -26 25 -28 32 -28 108 0 121
29 182 60 126z m-712 -47 c21 -6 22 -12 22 -88 0 -73 -3 -85 -23 -104 -37 -35
-47 -13 -47 100 0 103 1 104 48 92z m420 0 c21 -6 22 -12 22 -88 0 -75 -2 -85
-25 -106 -30 -29 -31 -26 -39 103 -7 103 -7 104 42 91z m-174 -200 c41 -40 9
-54 -120 -54 -88 0 -114 3 -124 15 -10 13 -10 19 5 35 16 17 31 20 121 20 80
0 106 -3 118 -16z m54 -154 c2 -89 -1 -118 -13 -136 -8 -13 -19 -24 -24 -24
-15 0 -31 78 -31 156 0 66 3 81 22 101 12 13 27 22 32 20 7 -2 12 -49 14 -117z
m142 0 c0 -73 -1 -77 -25 -88 -14 -7 -28 -12 -30 -12 -8 0 -6 206 2 213 3 4
17 -3 30 -15 20 -19 23 -31 23 -98z m278 -4 c3 -118 -4 -146 -33 -146 -21 0
-35 57 -35 143 0 69 3 84 22 104 12 13 27 22 32 20 7 -2 12 -50 14 -121z m317
99 c0 -5 -28 -11 -62 -13 l-63 -3 0 -44 0 -45 51 0 c68 0 81 -14 77 -87 l-3
-58 -67 0 c-82 0 -92 19 -13 23 l55 3 0 44 0 45 -47 0 c-29 0 -53 6 -65 17
-20 18 -24 67 -8 108 9 25 13 26 77 23 38 -2 68 -7 68 -13z m175 0 c0 -11 -12
-15 -50 -15 l-50 0 0 -45 0 -45 50 0 c38 0 50 -4 50 -15 0 -11 -12 -15 -50
-15 l-50 0 0 -45 0 -45 50 0 c38 0 50 -4 50 -15 0 -13 -11 -15 -62 -13 l-63 3
-2 120 c-2 66 -1 126 2 133 7 19 125 17 125 -3z m183 0 c-2 -5 -27 -11 -57
-13 l-54 -3 5 -37 c4 -27 1 -42 -11 -51 -14 -12 -16 -7 -16 46 0 33 3 63 7 67
11 11 128 2 126 -9z m-105 -190 c-3 -30 -2 -30 50 -33 38 -2 52 -7 52 -18 0
-12 -12 -14 -62 -12 l-63 3 -3 65 c-2 60 -1 64 13 45 9 -11 15 -33 13 -50z
m-1064 -21 c16 -42 11 -44 -117 -44 -82 0 -127 4 -135 12 -33 33 6 47 139 47
89 1 108 -2 113 -15z m426 -10 c6 -14 10 -27 10 -30 0 -2 -54 -4 -121 -4 -115
0 -159 9 -159 31 0 19 46 28 153 28 106 1 108 1 117 -25z m495 -216 c54 -14
94 -44 111 -84 17 -41 20 -387 3 -431 -28 -75 -103 -106 -254 -106 -122 0
-176 14 -223 58 l-37 33 0 226 0 225 29 30 c32 33 71 49 150 61 58 9 161 3
221 -12z m-487 -75 l-3 -78 -75 -5 -75 -5 -2 -170 c0 -93 -2 -194 -2 -222 l-1
-53 -95 0 -95 0 0 225 0 224 -77 3 -78 3 -3 78 -3 77 256 0 256 0 -3 -77z
m-528 -793 c162 0 173 -3 185 -58 4 -19 -3 -46 -21 -87 l-27 -58 17 -96 c22
-128 21 -142 -12 -174 -15 -15 -31 -27 -34 -27 -3 0 -8 65 -12 145 -7 133 -6
148 13 191 12 26 21 48 21 50 0 2 -68 4 -150 4 -147 0 -152 1 -175 25 -31 30
-33 77 -4 106 l21 21 14 -21 c14 -20 24 -21 164 -21z m415 0 c102 0 138 -9
154 -38 6 -11 14 -109 20 -218 l9 -199 -27 -22 c-14 -12 -29 -22 -33 -23 -3 0
-4 78 -1 173 7 220 11 212 -125 212 -126 1 -152 14 -152 80 0 27 6 50 16 60
15 15 18 14 31 -5 13 -18 25 -20 108 -20z m385 0 c41 0 61 -5 71 -17 10 -12
15 -69 20 -222 6 -219 5 -227 -43 -252 -15 -8 -16 5 -15 171 1 117 -2 183 -9
190 -6 6 -34 14 -62 19 -69 11 -82 23 -82 82 0 35 5 51 18 58 13 8 20 6 31 -9
11 -16 25 -20 71 -20z m394 -1 c107 -4 127 -7 146 -24 35 -31 50 -78 50 -155
0 -39 5 -114 11 -166 9 -87 9 -98 -8 -116 -10 -11 -26 -24 -35 -29 -16 -9 -17
2 -16 153 2 218 -4 228 -143 228 l-69 0 -30 -42 c-37 -50 -37 -73 -5 -168 19
-57 24 -85 19 -122 l-7 -48 -70 0 -70 0 7 38 c3 20 6 45 6 55 0 13 8 17 36 17
34 0 36 1 29 28 -26 102 -23 157 9 204 21 29 20 38 -3 38 -28 0 -44 26 -45 76
-1 34 4 49 18 60 17 12 21 11 33 -5 11 -16 29 -19 137 -22z m-1327 -332 c2
-56 0 -109 -2 -118 -3 -8 -19 -26 -36 -38 l-31 -23 4 122 c3 116 4 122 28 140
14 11 27 20 30 20 3 0 6 -46 7 -103z m-575 -176 c13 -24 14 -32 3 -41 -19 -15
-42 -2 -54 30 -10 29 -8 31 29 39 3 0 13 -12 22 -28z m2578 -82 c0 -14 -17
-10 -23 5 -4 10 -1 13 9 9 7 -3 14 -9 14 -14z m-2468 -54 c7 -35 -10 -42 -36
-16 -20 22 -21 22 -2 36 23 18 32 13 38 -20z m298 -321 c36 -16 94 -43 130
-60 38 -18 67 -27 69 -21 2 6 -4 16 -13 23 -14 10 -11 12 23 10 22 -1 44 -5
48 -9 13 -14 11 -36 -4 -41 -15 -6 -9 -26 8 -26 6 0 8 4 5 9 -3 5 5 8 18 7 13
0 22 -4 19 -8 -2 -5 1 -8 7 -8 6 0 8 -4 5 -10 -3 -6 1 -7 9 -4 9 3 16 1 16 -6
0 -6 5 -8 10 -5 6 4 8 10 6 14 -3 4 -1 12 3 19 5 9 14 9 39 0 33 -13 42 -32
20 -41 -8 -3 -5 -6 5 -6 10 -1 15 -6 12 -11 -3 -6 1 -13 10 -17 10 -3 21 0 26
8 6 10 9 10 9 2 0 -7 11 -13 25 -13 18 0 23 4 19 15 -7 18 32 21 56 5 13 -9
13 -11 0 -20 -8 -5 -22 -10 -30 -11 -37 -2 172 -38 230 -39 36 -1 95 -4 132
-9 38 -4 71 -4 75 0 5 4 40 10 78 13 153 12 370 73 549 155 38 17 74 31 81 31
6 0 33 11 58 24 26 13 47 21 47 17 0 -20 -301 -179 -370 -195 -3 -1 -9 -4 -15
-8 -33 -20 -198 -61 -308 -75 -258 -34 -593 11 -844 112 -108 43 -265 133
-318 181 -44 39 -40 39 55 -2z m90 -4 c8 -5 12 -11 10 -14 -3 -2 -14 2 -24 10
-22 15 -10 19 14 4z m650 -200 c12 -8 9 -10 -13 -10 -16 0 -26 4 -22 10 8 12
16 12 35 0z m393 -7 c-7 -2 -19 -2 -25 0 -7 3 -2 5 12 5 14 0 19 -2 13 -5z"/>
<path d="M2238 2159 c-16 -9 -18 -27 -18 -142 0 -90 4 -137 12 -145 15 -15 92
-16 119 -2 17 10 19 22 19 140 0 104 -3 132 -16 144 -18 18 -89 21 -116 5z"/>
</g>
</svg>
