<svg xmlns="http://www.w3.org/2000/svg" width="80" height="80" viewBox="0 0 80 80" fill="none">
<path d="M34.8942 0.24557C27.4765 1.2172 20.5608 4.18067 14.8112 8.84448C13.224 10.1238 10.1954 13.1196 8.93208 14.658C4.21905 20.4068 1.17421 27.5645 0.218646 35.1432C-0.0728819 37.5237 -0.0728819 42.479 0.218646 44.8595C0.704525 48.7622 1.69248 52.3734 3.26349 56.0332C7.11813 65.0531 14.9408 72.8585 23.9943 76.7451C29.258 79.0122 34.1492 80 39.9959 80C44.7414 80 48.2073 79.4494 52.5802 78.0244C56.2243 76.826 61.488 74.1702 62.3464 73.0853C62.5731 72.7938 62.6703 72.4213 62.6703 71.8707C62.6703 71.1744 62.6055 70.9963 62.1196 70.5104C61.65 70.0408 61.4556 69.9599 60.8078 69.9599C60.1761 69.9599 59.836 70.0894 58.9776 70.6238C54.8153 73.2634 49.4382 75.1419 44.2069 75.7896C41.9071 76.0649 37.2912 76.0001 34.8456 75.6277C21.8079 73.7168 10.827 64.8588 6.22735 52.5677C3.71698 45.8473 3.32827 37.8638 5.15842 30.8842C8.39761 18.4798 18.1152 8.66635 30.5213 5.26565C34.0682 4.29402 36.692 4.00253 40.8867 4.0997C44.6442 4.18067 46.361 4.40738 49.503 5.26565C56.3539 7.11174 62.978 11.3545 67.5453 16.828C71.8858 22.01 74.6553 28.1961 75.6271 34.8517C75.9996 37.297 76.0644 41.9122 75.789 44.2117C75.1412 49.4423 73.2625 54.8187 70.6225 58.9805C70.0881 59.8387 69.9585 60.1788 69.9585 60.8104C69.9585 61.4581 70.0395 61.6524 70.5092 62.1221C70.9788 62.5917 71.1732 62.6726 71.8534 62.6726C72.3231 62.6726 72.7928 62.5593 73.0195 62.4135C74.0075 61.7172 76.7932 56.3409 77.9431 52.8592C79.3846 48.5031 80 44.7137 80 40.0337C80 34.1554 79.012 29.281 76.7446 24.0019C73.3273 16.0183 67.0918 9.21694 59.1558 4.77984C56.2243 3.14426 51.6894 1.47631 48.1263 0.73139C44.6442 0.00266916 38.4897 -0.224047 34.8942 0.24557Z" fill="white"/>
<path d="M30.7571 20.9099C30.0445 21.2014 29.2995 21.8654 28.927 22.5617L28.5707 23.2418V56.763L28.9756 57.4917C29.5748 58.5605 30.5304 59.1597 31.7775 59.2407C32.4415 59.2892 32.9922 59.2245 33.3485 59.0625C33.6562 58.933 38.2235 56.0181 43.471 52.585C59.8775 41.8647 58.7276 42.6582 59.2135 41.8323C59.8613 40.7311 59.9099 39.5976 59.3592 38.4802C59.1163 37.9944 58.6952 37.4276 58.4037 37.2171C57.4157 36.4722 34.4012 21.4767 33.6886 21.1043C32.9112 20.6994 31.5183 20.6184 30.7571 20.9099Z" fill="white"/>
<path d="M66.42 64.8904C65.9179 64.9876 64.9947 65.943 64.8975 66.4774C64.606 67.9349 65.9179 69.2304 67.3269 68.9065C67.9748 68.7769 68.817 67.8701 68.9141 67.1737C69.1409 65.8135 67.8452 64.6313 66.42 64.8904Z" fill="white"/>
</svg>