<?xml version="1.0" standalone="no"?>
<!DOCTYPE svg PUBLIC "-//W3C//DTD SVG 20010904//EN"
 "http://www.w3.org/TR/2001/REC-SVG-20010904/DTD/svg10.dtd">
<svg version="1.0" xmlns="http://www.w3.org/2000/svg"
 width="2560.000000pt" height="2560.000000pt" viewBox="0 0 2560.000000 2560.000000"
 preserveAspectRatio="xMidYMid meet">
<metadata>
Created by potrace 1.14, written by Peter Selinger 2001-2017
</metadata>
<g transform="translate(0.000000,2560.000000) scale(0.100000,-0.100000)"
fill="#000000" stroke="none">
<path d="M12489 22566 c-2 -2 -95 -7 -207 -10 -276 -9 -413 -20 -762 -61 -69
-8 -150 -17 -180 -20 -30 -4 -98 -13 -150 -21 -52 -8 -126 -19 -165 -25 -38
-5 -90 -14 -115 -19 -25 -6 -76 -14 -115 -20 -38 -5 -101 -17 -140 -25 -38 -9
-90 -20 -115 -25 -25 -5 -92 -20 -150 -35 -58 -14 -125 -30 -150 -34 -25 -5
-70 -17 -100 -26 -30 -9 -71 -20 -90 -25 -96 -24 -157 -42 -290 -85 -80 -25
-194 -62 -255 -81 -145 -47 -298 -101 -360 -128 -27 -13 -77 -33 -110 -46
-190 -73 -379 -160 -649 -296 -496 -250 -650 -335 -884 -493 -156 -105 -217
-144 -347 -220 -69 -41 -110 -69 -300 -206 -97 -70 -306 -231 -315 -244 -3 -4
-25 -22 -50 -41 -73 -56 -141 -113 -180 -150 -20 -19 -82 -77 -138 -129 -56
-52 -102 -98 -102 -102 0 -5 496 -10 1103 -11 l1102 -3 55 -26 c66 -31 137
-100 171 -166 23 -46 24 -57 24 -223 0 -166 -1 -178 -25 -225 -30 -62 -100
-132 -166 -165 l-49 -25 -477 -5 c-306 -3 -481 -9 -487 -15 -7 -7 -11 -545
-13 -1645 l-3 -1635 -28 -61 c-32 -68 -100 -141 -162 -173 -63 -32 -133 -41
-330 -41 -194 0 -276 10 -338 42 -57 29 -125 101 -155 166 l-27 57 -3 1637 -2
1638 -23 15 c-19 12 -95 15 -497 15 l-474 1 -64 -78 c-35 -43 -71 -82 -81 -86
-10 -5 -25 -22 -35 -38 -9 -16 -21 -29 -25 -29 -5 0 -18 -22 -29 -48 -11 -26
-38 -68 -60 -92 -21 -25 -55 -72 -75 -105 -21 -33 -53 -77 -72 -99 -19 -21
-35 -42 -35 -47 0 -4 -16 -25 -35 -46 -19 -21 -35 -43 -35 -49 0 -18 -72 -143
-138 -239 -34 -49 -62 -93 -62 -98 0 -5 -10 -22 -22 -37 -13 -15 -39 -54 -58
-86 -19 -32 -54 -86 -77 -120 -23 -34 -64 -104 -91 -155 -68 -128 -282 -555
-282 -562 0 -3 -23 -54 -51 -114 -28 -59 -54 -117 -59 -128 -4 -11 -23 -51
-40 -90 -18 -38 -41 -97 -52 -130 -11 -33 -35 -92 -53 -130 -19 -39 -38 -83
-44 -98 -6 -15 -15 -27 -20 -27 -5 0 -7 -9 -4 -19 3 -11 -4 -37 -15 -58 -27
-52 -48 -113 -71 -208 -10 -44 -28 -107 -38 -140 -61 -185 -111 -355 -153
-520 -16 -60 -36 -137 -45 -170 -9 -33 -23 -87 -31 -120 -8 -33 -19 -73 -24
-90 -68 -217 -135 -593 -190 -1070 -7 -55 -18 -145 -26 -200 -38 -261 -57
-983 -41 -1480 15 -431 28 -609 47 -645 5 -10 10 -66 10 -124 0 -61 4 -106 10
-106 11 0 19 -40 25 -130 4 -63 10 -96 34 -190 6 -25 20 -110 31 -190 11 -80
24 -165 30 -190 6 -25 15 -72 20 -105 7 -55 21 -111 49 -205 6 -19 11 -48 11
-65 0 -16 9 -61 21 -100 11 -38 28 -95 36 -125 9 -30 19 -63 24 -72 5 -10 9
-24 9 -33 0 -8 25 -89 54 -179 35 -105 56 -187 59 -227 3 -41 13 -80 28 -109
13 -25 32 -65 42 -90 11 -25 32 -74 48 -109 17 -35 36 -87 44 -115 26 -94 44
-145 73 -208 16 -35 33 -74 37 -88 4 -14 27 -67 51 -117 24 -51 44 -100 44
-108 0 -8 4 -15 10 -15 5 0 13 -12 16 -27 4 -16 10 -32 14 -38 5 -5 19 -37 33
-70 67 -161 223 -464 331 -645 38 -63 93 -161 121 -217 29 -56 65 -116 79
-134 15 -17 38 -53 51 -79 13 -26 35 -61 49 -78 15 -16 26 -33 26 -36 0 -4 18
-31 40 -61 21 -29 65 -91 96 -137 30 -45 61 -87 68 -93 7 -5 21 -26 31 -45 9
-19 32 -51 49 -70 18 -19 50 -64 71 -100 21 -36 44 -69 50 -75 6 -5 23 -28 38
-50 55 -80 80 -111 143 -180 35 -38 95 -104 133 -145 188 -206 626 -665 671
-704 13 -11 38 -35 55 -52 16 -17 37 -35 46 -40 19 -10 108 -85 155 -129 74
-70 115 -105 124 -105 6 0 45 -33 88 -73 87 -82 141 -125 192 -153 19 -10 56
-37 81 -59 26 -22 68 -53 95 -70 27 -16 76 -50 109 -76 33 -25 85 -62 115 -82
30 -20 80 -54 110 -76 30 -22 89 -61 130 -87 41 -26 128 -82 192 -125 64 -42
136 -88 160 -100 24 -13 50 -29 58 -35 41 -33 527 -295 770 -416 222 -110 492
-238 502 -238 4 0 35 -13 70 -29 184 -85 571 -224 848 -305 69 -21 136 -41
150 -46 14 -4 50 -15 80 -24 30 -8 87 -25 125 -37 118 -36 424 -114 505 -129
25 -4 79 -15 120 -25 41 -9 95 -20 120 -25 25 -5 83 -16 130 -25 47 -9 112
-20 145 -25 33 -4 114 -16 180 -25 159 -23 243 -32 405 -45 74 -5 142 -13 150
-16 61 -26 1031 -37 1448 -17 139 7 257 15 262 18 5 3 58 10 117 16 60 5 152
13 205 18 53 5 102 12 109 17 7 4 53 11 103 15 139 13 236 25 286 37 25 6 72
16 105 22 33 7 80 16 105 22 25 5 72 14 105 19 63 9 105 18 220 44 39 9 88 20
110 24 23 4 47 11 55 16 8 5 32 12 55 16 22 4 65 14 95 24 30 9 70 19 88 22
18 3 35 9 38 14 3 5 15 9 27 9 12 0 42 7 67 15 91 30 346 112 390 125 25 7 59
19 77 26 17 8 36 14 42 14 6 0 19 4 29 9 9 4 55 21 102 36 47 15 109 38 138
51 29 13 57 24 61 24 5 0 45 15 88 34 43 19 145 62 228 96 163 67 189 78 345
152 442 208 901 467 1220 689 63 44 185 127 270 185 169 115 217 148 241 168
37 31 171 133 204 156 41 28 49 35 192 157 112 97 164 141 206 173 36 28 34
36 -10 45 -97 18 -194 90 -241 180 l-27 50 -6 810 c-4 451 -11 848 -17 895
-24 198 -61 314 -123 384 -79 90 -171 126 -321 126 -80 0 -110 -5 -164 -25
-190 -71 -365 -301 -430 -565 -17 -69 -19 -138 -24 -835 -4 -556 -9 -770 -18
-796 -18 -54 -75 -127 -127 -165 -81 -57 -130 -66 -354 -62 -188 3 -198 4
-253 30 -73 34 -142 103 -176 176 l-27 57 0 1310 0 1310 27 51 c31 58 105 137
152 161 61 32 130 43 266 43 197 0 266 -23 356 -115 62 -63 89 -128 99 -237 4
-49 11 -78 18 -78 7 0 34 27 61 60 73 89 196 189 316 260 72 41 198 99 245
111 17 4 55 14 87 23 102 28 268 39 402 27 193 -18 301 -47 441 -120 223 -115
385 -361 445 -676 54 -287 60 -398 60 -1120 0 -349 4 -636 8 -639 9 -5 152
138 152 153 0 5 14 18 30 28 17 9 30 24 30 31 0 8 6 12 14 9 9 -4 12 0 9 13
-4 14 8 28 44 54 27 19 58 52 69 73 10 21 27 46 37 57 9 11 17 24 17 28 0 5
17 27 38 51 21 23 46 56 57 72 10 17 38 53 62 81 23 28 43 56 43 61 0 6 7 16
15 23 13 11 79 104 142 200 12 19 33 46 46 60 35 37 87 107 87 116 0 5 14 24
31 42 18 19 47 64 65 100 18 37 49 85 69 106 19 22 35 45 35 52 0 7 9 16 20
19 13 4 20 15 20 31 0 13 11 42 25 64 14 22 25 43 25 47 0 5 8 13 18 19 10 7
33 43 51 80 18 38 40 85 49 104 10 19 20 37 23 40 3 3 19 30 34 60 16 30 42
70 57 88 15 18 28 42 28 53 0 11 11 31 25 45 14 14 27 35 31 49 6 24 100 214
133 269 10 17 22 44 26 61 3 16 10 32 13 35 11 8 82 148 82 160 0 14 33 91 69
160 16 30 32 71 36 90 4 19 13 42 20 50 7 8 19 35 26 60 7 25 15 47 19 50 13
12 40 83 40 105 0 14 4 25 9 25 4 0 14 21 21 47 7 27 19 59 25 73 7 14 21 52
31 85 10 33 22 64 26 70 4 5 8 24 8 41 0 18 4 35 9 38 4 3 11 24 15 46 3 23
10 49 15 58 5 9 17 35 26 57 9 22 20 47 24 55 5 9 12 31 16 50 4 19 19 73 35
120 15 47 31 112 35 145 4 33 16 96 27 140 11 44 23 98 27 120 4 22 13 50 19
62 7 13 17 60 23 105 6 45 14 87 20 94 16 19 48 166 50 229 1 33 8 98 15 145
7 47 20 137 28 200 8 63 22 169 31 235 51 385 68 690 62 1145 -6 438 -20 803
-36 955 -6 55 -13 132 -16 170 -2 39 -16 144 -30 235 -38 247 -44 289 -51 355
-3 33 -9 69 -14 80 -14 34 -30 112 -30 149 0 19 -4 45 -9 58 -11 29 -26 93
-58 238 -35 163 -89 374 -112 431 -5 15 -7 29 -4 32 3 3 1 12 -3 19 -19 28
-69 187 -80 253 -3 17 -14 54 -25 83 -52 143 -62 169 -74 197 -7 17 -25 68
-40 115 -24 73 -48 136 -85 225 -4 11 -14 36 -20 55 -16 43 -55 137 -86 207
-13 28 -24 55 -24 58 0 4 -7 23 -16 43 -9 21 -27 64 -41 97 -82 191 -383 781
-459 902 -18 29 -44 74 -58 100 -49 97 -206 344 -275 432 -39 50 -86 115 -105
144 -18 28 -43 61 -55 71 -11 11 -21 24 -21 30 -1 6 -19 36 -41 66 -22 30 -60
87 -86 125 -25 39 -71 99 -103 135 -31 36 -64 76 -72 89 -9 13 -43 51 -75 85
-32 33 -85 92 -118 130 -99 115 -249 278 -295 321 -83 79 -186 182 -260 260
-42 44 -118 118 -170 165 -52 47 -99 90 -105 96 -5 6 -57 51 -115 99 -58 49
-125 109 -151 134 -106 107 -579 464 -824 622 -22 14 -94 62 -160 105 -65 43
-124 81 -130 84 -5 3 -37 23 -70 46 -33 23 -85 56 -115 73 -73 42 -89 52 -125
76 -33 22 -43 28 -130 75 -33 18 -65 36 -71 41 -21 17 -341 180 -584 297 -41
20 -92 47 -112 59 -21 13 -42 23 -47 23 -5 0 -49 18 -96 40 -47 22 -90 40 -94
40 -8 0 -50 19 -114 51 -22 10 -47 19 -57 19 -11 0 -22 5 -25 10 -3 6 -15 10
-25 10 -10 0 -25 7 -34 15 -8 8 -22 15 -31 15 -9 0 -40 10 -68 23 -71 32 -117
48 -149 54 -16 3 -28 9 -28 13 0 4 -12 11 -27 14 -16 4 -50 15 -78 26 -27 10
-75 24 -105 30 -30 7 -70 19 -88 27 -17 9 -41 13 -51 10 -13 -3 -21 1 -24 14
-3 12 -14 19 -31 19 -14 0 -35 4 -48 9 -13 5 -50 17 -83 26 -94 28 -209 68
-215 76 -3 3 -21 9 -40 12 -72 11 -134 27 -144 37 -6 6 -22 10 -37 10 -15 0
-30 4 -33 9 -3 5 -33 12 -66 16 -33 4 -63 11 -66 16 -3 5 -20 9 -37 9 -18 0
-45 7 -61 15 -15 8 -46 15 -67 15 -21 0 -40 4 -43 9 -3 4 -25 11 -48 15 -23 4
-47 11 -53 15 -5 5 -32 12 -60 15 -129 19 -163 25 -200 36 -24 7 -61 10 -96 6
-36 -4 -60 -3 -64 4 -3 5 -15 10 -25 10 -10 0 -31 5 -47 12 -45 19 -170 39
-273 45 -52 2 -99 8 -105 13 -5 4 -53 11 -105 15 -52 4 -99 11 -105 15 -25 19
-1117 54 -1136 36z m-1438 -3800 c247 -37 394 -100 532 -226 161 -147 255
-362 313 -715 4 -22 14 -120 23 -217 l16 -177 92 45 c51 24 115 49 143 54 28
5 87 25 131 45 44 19 91 35 104 35 13 0 50 7 82 16 32 9 78 20 103 24 25 5 61
14 80 19 19 6 52 11 72 11 20 0 39 4 42 9 3 5 23 12 43 15 21 4 64 11 96 16
31 6 85 15 120 21 34 6 87 10 117 10 30 0 80 0 110 0 137 2 225 0 350 -10 208
-16 264 -22 275 -30 6 -4 30 -13 55 -20 129 -35 172 -52 280 -108 25 -12 92
-46 150 -74 58 -28 163 -80 234 -115 71 -35 137 -64 147 -64 10 0 35 -15 55
-32 42 -38 95 -76 209 -152 44 -29 88 -63 98 -74 11 -11 25 -18 32 -16 21 8
120 -120 179 -231 29 -54 57 -100 62 -102 5 -2 20 18 33 44 47 98 131 211 208
280 224 200 347 269 558 314 137 29 210 33 398 19 141 -10 180 -17 217 -35 25
-12 65 -31 90 -41 79 -33 129 -65 151 -96 l22 -30 -24 6 c-29 9 -64 23 -101
43 -33 17 -11 17 -413 4 -301 -9 -338 -12 -426 -35 -154 -40 -307 -131 -426
-253 -82 -83 -122 -137 -174 -237 l-37 -69 39 -75 c21 -41 48 -107 60 -145 12
-39 50 -118 85 -175 35 -58 64 -109 64 -114 0 -4 3 -8 8 -8 4 0 8 30 9 68 3
78 30 232 50 280 31 74 35 37 32 -315 -2 -286 1 -354 12 -382 l15 -35 23 50
c34 71 60 104 82 104 18 0 20 -4 13 -45 -4 -27 -2 -45 3 -45 13 0 33 -46 33
-76 0 -15 5 -24 11 -22 8 3 11 63 10 200 -2 236 9 300 69 389 65 95 168 145
250 120 59 -17 106 -78 115 -147 8 -66 29 -119 49 -127 22 -9 26 14 25 165 -1
75 2 142 6 148 6 10 13 159 15 305 0 61 37 126 84 149 39 19 51 13 72 -37 15
-36 17 -64 14 -192 -5 -169 -5 -567 -1 -605 2 -14 0 -271 -3 -571 -6 -614 -20
-949 -39 -961 -7 -4 -13 -2 -15 5 -2 7 -10 26 -17 42 -17 39 -23 102 -35 360
-16 351 -20 395 -36 395 -8 0 -19 9 -26 20 -16 25 -44 26 -57 2 -5 -10 -15
-142 -20 -293 -6 -151 -18 -323 -26 -384 -8 -60 -20 -162 -26 -225 -6 -63 -15
-153 -19 -200 -5 -47 -9 -121 -9 -164 -1 -76 -2 -78 -19 -62 -11 9 -36 17 -58
19 -34 2 -39 -1 -42 -20 -4 -26 -6 -27 -31 -11 -14 9 -26 8 -50 -2 -27 -11
-31 -17 -31 -51 0 -21 -7 -64 -16 -96 -9 -32 -19 -87 -23 -123 -4 -37 -10 148
-14 420 -4 267 -12 550 -17 630 -5 80 -14 231 -20 335 -6 105 -14 210 -20 235
-5 25 -9 93 -10 151 0 78 -4 110 -14 118 -11 9 -15 7 -19 -10 -7 -28 3 -79 15
-79 6 0 7 -26 3 -67 -10 -90 -13 -153 -20 -363 -3 -96 -10 -209 -16 -250 -6
-41 -12 -84 -13 -94 -1 -11 -12 -27 -24 -37 -12 -9 -22 -25 -22 -35 0 -10 -7
-25 -16 -35 -8 -9 -19 -43 -24 -75 -5 -33 -18 -95 -28 -139 -11 -44 -25 -141
-32 -215 -6 -74 -18 -166 -27 -203 l-15 -69 -23 22 c-12 12 -26 35 -29 52 -3
17 -8 29 -10 27 -2 -2 -33 -61 -70 -131 -36 -70 -91 -172 -123 -225 l-58 -98
-5 -108 c-3 -59 -8 -107 -12 -106 -42 5 -48 12 -48 54 0 24 5 45 12 47 6 2 9
10 7 17 -3 8 -31 -21 -66 -67 l-61 -81 -7 -115 c-4 -64 -10 -116 -13 -116 -4
0 -8 -42 -9 -93 -1 -50 -6 -153 -12 -227 -6 -74 -13 -180 -15 -235 -2 -55 -8
-113 -15 -128 -8 -20 -11 -210 -11 -659 l0 -631 56 7 c31 3 64 11 74 16 10 6
88 10 172 10 114 1 159 4 178 15 33 19 104 19 120 0 8 -9 9 -15 2 -15 -6 0
-14 5 -17 10 -10 16 -61 12 -84 -7 l-22 -18 31 -36 c31 -39 29 -50 -15 -63
-11 -3 0 -3 25 0 24 3 52 11 61 19 28 27 42 18 36 -21 -5 -29 0 -49 24 -95 25
-47 28 -61 19 -79 -14 -26 -30 -17 -30 19 0 28 -44 81 -57 68 -3 -4 -15 1 -25
10 -16 14 -24 15 -52 5 -41 -15 -193 -16 -235 -1 -66 23 -53 -13 38 -108 38
-40 65 -73 61 -73 -4 0 -13 7 -20 15 -7 8 -18 15 -25 15 -26 0 -26 -34 0 -83
26 -50 32 -77 16 -77 -5 0 -37 23 -71 50 -34 28 -64 50 -66 50 -2 0 -1 -7 2
-15 5 -11 2 -13 -10 -9 -11 4 -16 1 -16 -11 0 -10 15 -23 40 -32 22 -9 40 -21
40 -26 0 -5 16 -29 35 -53 19 -23 35 -47 35 -52 0 -14 -51 -22 -139 -23 -83 0
-162 -11 -146 -20 6 -3 80 -3 165 0 167 6 200 5 200 -10 0 -5 9 -18 20 -29 17
-17 20 -33 20 -102 0 -82 1 -83 30 -100 18 -10 30 -25 30 -38 0 -11 7 -23 15
-26 8 -4 15 -12 15 -19 0 -19 38 -29 56 -14 12 10 19 8 40 -12 21 -20 28 -21
44 -11 19 12 19 11 0 -21 -25 -40 -25 -47 1 -47 11 0 29 -5 39 -10 17 -9 22
-5 34 25 8 19 16 35 18 35 2 0 1 -38 -3 -85 -6 -92 -19 -127 -19 -52 0 26 -2
47 -4 47 -3 0 -16 -4 -29 -9 -18 -7 -30 -6 -43 4 -21 16 -54 20 -54 7 0 -12
30 -37 53 -45 23 -8 20 -62 -3 -62 -19 0 -116 -51 -125 -65 -9 -15 50 -12 89
4 19 8 39 10 47 6 17 -11 26 -5 50 34 l19 31 0 -27 0 -26 233 -4 c256 -4 283
-9 360 -69 55 -42 102 -104 123 -160 21 -58 29 -226 16 -312 -6 -38 -21 -88
-32 -110 -33 -64 -106 -132 -174 -164 l-61 -28 -467 -3 c-360 -3 -469 -6 -477
-16 -7 -9 -11 -527 -13 -1647 l-3 -1634 -27 -57 c-34 -73 -103 -142 -176 -176
l-57 -27 -260 0 -260 0 -57 27 c-73 34 -142 103 -176 176 l-27 57 -3 1615 -2
1614 -48 -83 c-58 -104 -158 -213 -260 -284 -117 -81 -143 -91 -252 -95 -112
-5 -175 8 -267 52 -37 18 -77 36 -88 39 -30 10 -127 123 -147 171 -13 32 -17
74 -17 185 l-1 143 -43 44 c-59 59 -88 121 -99 214 l-10 77 -161 7 c-88 4
-170 12 -181 18 -25 14 -415 30 -726 30 -341 0 -374 -1 -462 -16 -60 -11 -87
-11 -105 -3 -19 8 -27 7 -40 -6 -14 -14 -18 -14 -38 -1 -12 8 -30 12 -39 8
-26 -10 -18 -24 15 -24 24 0 30 -4 27 -17 -2 -13 -13 -18 -33 -18 -32 0 -32 0
-34 72 -1 39 -4 44 -37 58 -20 8 -47 15 -60 15 -12 0 -25 4 -28 9 -8 12 67 20
132 14 66 -7 65 10 -3 29 -24 7 -60 28 -80 46 -35 32 -136 69 -156 57 -4 -3
-17 -26 -28 -50 -21 -49 -48 -62 -104 -51 l-32 6 22 -19 c12 -10 19 -21 16
-24 -8 -8 -62 30 -91 64 -13 15 -51 44 -85 64 -72 42 -112 73 -104 81 8 8 73
-22 114 -53 29 -21 34 -22 20 -6 -23 27 -19 55 11 68 12 5 20 16 17 22 -5 15
-3 15 19 7 9 -3 13 -10 10 -15 -3 -5 2 -9 12 -9 9 0 41 -14 70 -31 30 -17 59
-27 65 -23 8 4 7 9 -2 15 -11 7 -10 9 4 9 9 0 17 -4 17 -8 0 -7 42 -32 54 -32
1 0 1 13 -2 28 -2 18 2 33 12 41 9 8 16 19 16 25 -1 6 -9 1 -19 -11 -18 -22
-20 -22 -51 -7 -17 9 -55 22 -83 29 -99 24 -188 64 -231 102 -64 57 -66 60
-87 163 -14 66 -14 66 -34 50 -12 -10 -18 -10 -30 0 -19 16 -19 1 0 -24 8 -11
15 -29 15 -40 1 -12 30 -55 65 -96 35 -41 63 -76 61 -77 -5 -5 -74 26 -81 37
-3 5 -15 10 -26 10 -16 0 -18 -3 -9 -19 24 -45 3 -79 -29 -48 -11 10 -12 7 -6
-13 6 -19 1 -16 -22 15 -44 61 -81 137 -102 212 -10 37 -26 85 -35 105 -32 74
-16 477 25 643 18 77 19 97 9 420 -6 187 -15 479 -20 649 -6 188 -13 313 -20
320 -5 5 -10 27 -10 47 0 37 -1 38 -53 49 -41 10 -57 19 -70 41 -41 72 -44 43
-56 -626 -5 -269 -13 -688 -17 -930 -11 -561 -9 -645 15 -715 l18 -55 89 3
c104 3 123 -4 101 -39 -8 -13 -20 -48 -26 -77 -17 -81 -27 -95 -64 -88 -18 3
-61 9 -96 15 -52 7 -69 15 -92 40 -15 17 -32 31 -36 31 -5 0 -17 13 -26 30
-17 27 -18 139 -22 1852 -5 2090 -11 2809 -27 3028 -27 398 33 625 203 756
104 80 198 114 313 114 50 0 53 1 69 36 10 20 20 57 23 83 11 89 50 238 60
228 3 -2 -3 -23 -11 -47 -31 -88 -16 -96 25 -12 22 44 40 83 40 87 0 3 12 31
26 60 14 30 29 69 34 86 9 30 8 30 -8 16 -10 -9 -35 -52 -57 -96 -21 -44 -40
-79 -42 -77 -6 6 63 151 121 255 l56 99 0 458 c0 669 -23 831 -136 963 -127
148 -394 170 -580 49 -101 -67 -215 -208 -270 -336 -14 -31 -29 -66 -33 -77
-12 -25 -28 -93 -41 -169 -6 -37 -10 -335 -10 -776 0 -673 -1 -720 -19 -773
-42 -129 -130 -208 -259 -236 -69 -14 -335 -14 -404 0 -29 6 -70 20 -92 31
-54 28 -127 104 -156 163 l-25 50 0 1320 0 1320 27 50 c32 62 106 133 173 165
46 23 64 25 219 28 182 4 232 -4 298 -44 118 -74 169 -159 181 -301 3 -34 8
-66 12 -72 3 -7 51 35 113 97 113 115 206 183 337 249 233 118 480 157 736
119z m6069 -1630 c0 -8 6 -16 14 -19 15 -6 42 -47 31 -47 -9 0 -65 63 -65 72
0 5 5 8 10 8 6 0 10 -6 10 -14z m-228 -373 c6 -16 14 -68 19 -118 4 -49 17
-130 28 -180 66 -278 77 -380 92 -807 11 -329 0 -628 -25 -658 -20 -24 -37
-214 -65 -719 -5 -90 -14 -168 -19 -173 -17 -17 -32 1 -32 36 0 18 -6 40 -13
50 -23 32 -35 -2 -41 -124 -17 -307 -21 -279 -29 180 -4 256 -17 641 -27 855
-32 646 -43 980 -37 1129 4 78 7 188 8 244 1 57 5 120 9 140 4 21 11 54 14 74
8 42 57 98 87 98 12 0 24 -11 31 -27z m397 -693 c12 -132 13 -790 2 -990 -5
-88 -8 -111 -9 -67 -1 38 -7 77 -12 87 -13 24 -22 823 -12 1095 7 197 7 198
14 95 3 -58 11 -157 17 -220z m-7200 -1712 c11 -274 5 -626 -12 -733 l-12 -80
-6 150 c-9 210 -10 746 -2 839 11 131 23 63 32 -176z m6271 -362 c0 -3 -4 -8
-10 -11 -5 -3 -10 -1 -10 4 0 6 5 11 10 11 6 0 10 -2 10 -4z m-7011 -131 c148
-50 274 -142 354 -260 77 -112 129 -268 157 -470 32 -230 32 -1209 0 -1895 -5
-113 -12 -279 -15 -370 -13 -371 -27 -616 -37 -627 -15 -19 -49 -15 -78 7
l-25 19 -7 328 c-3 180 -9 828 -12 1438 -4 663 -11 1148 -17 1203 -25 219
-123 374 -286 453 -63 31 -77 34 -187 37 -117 4 -121 4 -195 -29 -87 -37 -167
-93 -202 -139 -41 -54 -69 -81 -78 -76 -4 3 -13 -6 -19 -19 -13 -28 -26 -31
-65 -12 -31 14 -31 14 -13 87 54 225 278 368 557 355 65 -3 118 -13 168 -30z
m-444 -847 c19 -32 20 -53 19 -483 -2 -755 -3 -825 -14 -825 -6 0 -10 21 -11
48 -1 43 -2 44 -9 17 -12 -42 -28 -489 -40 -1080 -10 -494 -26 -785 -41 -785
-12 0 -46 70 -60 123 -6 25 -22 61 -35 78 -13 18 -24 40 -24 49 0 21 -20 40
-40 40 -25 0 -38 60 -40 190 -2 63 -4 149 -6 190 -24 457 -25 1134 -3 1335 18
161 30 306 38 495 5 102 14 203 20 225 26 94 35 121 43 131 5 7 17 41 27 76
21 78 85 195 109 201 37 10 48 6 67 -25z m442 -33 c46 -18 52 -28 94 -136 l32
-83 -6 -726 c-7 -667 -30 -1676 -40 -1710 -27 -91 -43 -130 -54 -130 -8 0 -28
7 -46 15 -84 40 -107 62 -100 98 3 16 1 27 -6 27 -8 0 -11 85 -11 298 0 163
-5 556 -11 872 -8 405 -8 689 -1 960 11 411 19 477 62 512 27 22 39 22 87 3z
m-1547 -1156 c30 -55 41 -136 39 -289 -1 -85 -1 -363 1 -617 2 -338 0 -466 -9
-476 -6 -8 -10 -23 -10 -33 6 -60 -2 -214 -11 -214 -5 0 -10 6 -10 14 0 11 -9
13 -32 10 -65 -9 -63 -26 -64 418 0 222 -7 542 -14 711 -15 341 -9 430 32 474
27 29 64 30 78 2z m8050 -676 c21 -35 21 -37 2 -20 -17 16 -37 57 -27 57 2 0
13 -17 25 -37z m-7663 -95 c-2 -18 -4 -6 -4 27 0 33 2 48 4 33 2 -15 2 -42 0
-60z m7724 -44 c14 -36 14 -43 3 -33 -8 6 -14 18 -14 25 0 8 -4 14 -9 14 -12
0 -23 29 -15 42 8 13 16 4 35 -48z m-7719 -51 c-4 -55 -12 -54 -12 2 0 27 3
45 7 41 4 -4 6 -23 5 -43z m7781 -35 c-5 -10 -33 10 -33 23 0 5 9 4 19 -3 11
-7 17 -16 14 -20z m-43 -72 c0 -14 5 -28 11 -31 11 -8 -23 -50 -54 -66 -18
-10 -87 -2 -87 10 0 4 7 16 16 27 13 16 15 16 10 2 -10 -31 21 -20 53 19 17
21 31 43 31 50 0 7 5 13 10 13 6 0 10 -11 10 -24z m111 -207 c11 -52 23 -111
26 -133 6 -42 -14 -151 -32 -179 -7 -10 -11 -39 -9 -65 1 -26 0 -40 -3 -32 -3
8 -12 22 -19 31 -8 9 -14 24 -13 35 5 51 -2 76 -21 81 -21 6 -28 23 -9 23 23
0 49 -22 49 -43 1 -22 1 -22 16 -2 8 11 12 26 9 33 -3 8 0 21 6 28 14 17 6
122 -16 216 -14 62 -20 116 -10 106 3 -2 14 -47 26 -99z m-231 6 c14 -17 -58
-35 -136 -35 l-57 0 22 24 c20 21 31 24 92 24 42 -1 73 -6 79 -13z m-7585
-150 c3 -27 8 -82 11 -122 5 -66 4 -72 -16 -83 -19 -10 -22 -18 -17 -51 4 -27
1 -39 -7 -39 -16 0 -31 266 -17 284 5 6 12 26 16 44 9 44 21 30 30 -33z m7791
-20 c4 -8 3 -23 0 -32 -6 -15 -8 -15 -16 -3 -13 20 -12 50 0 50 6 0 13 -7 16
-15z m-4936 -645 c13 -8 13 -10 -2 -10 -9 0 -20 5 -23 10 -8 13 5 13 25 0z"/>
<path d="M13233 17703 c15 -2 37 -2 50 0 12 2 0 4 -28 4 -27 0 -38 -2 -22 -4z"/>
<path d="M12896 17688 c-21 -8 -25 -13 -15 -19 22 -15 -18 -39 -63 -39 -27 0
-38 4 -38 15 0 12 -7 14 -27 9 -16 -4 -33 -12 -38 -19 -6 -7 -19 -15 -30 -18
-11 -3 -1 -4 23 -1 34 5 42 3 42 -10 0 -32 -41 -36 -92 -9 l-47 25 -118 -22
c-117 -22 -243 -64 -243 -81 0 -21 73 -7 139 26 91 46 148 57 192 37 19 -8 52
-18 74 -23 48 -10 325 1 325 13 0 4 -13 8 -30 8 -32 0 -42 23 -16 33 23 9 88
-4 116 -23 45 -30 110 -60 130 -60 22 0 26 10 9 27 -21 21 -6 56 30 68 44 15
50 33 14 40 -15 4 -38 11 -51 16 -30 12 -82 12 -118 -1 -23 -8 -41 -7 -73 5
-50 17 -55 17 -95 3z"/>
<path d="M13780 17680 c0 -6 -15 -8 -40 -4 -42 7 -90 -1 -90 -15 0 -4 32 -22
71 -39 47 -21 73 -38 76 -52 7 -28 43 -27 43 1 0 20 3 21 55 15 46 -5 57 -3
62 10 5 13 15 15 47 10 l41 -6 -28 16 c-15 8 -51 17 -80 20 -28 3 -72 16 -96
30 -47 26 -61 29 -61 14z"/>
<path d="M13905 17674 c22 -8 59 -23 82 -34 24 -11 45 -20 48 -20 6 0 157 -70
164 -76 2 -2 4 -14 5 -26 1 -16 12 -29 36 -41 19 -10 34 -22 32 -27 -1 -6 10
-15 25 -21 14 -5 44 -25 65 -44 41 -38 61 -45 51 -19 -5 13 -2 15 18 9 46 -13
124 -74 136 -105 11 -28 10 -31 -5 -25 -26 10 23 -39 108 -108 41 -33 80 -65
85 -71 19 -21 64 -46 83 -46 10 0 49 -15 86 -34 38 -19 64 -30 57 -23 -6 6
-11 17 -11 24 0 11 6 10 30 -2 39 -20 56 -20 39 2 -13 15 -12 15 8 5 12 -7 33
-12 46 -12 13 0 30 -8 38 -17 24 -30 40 -63 30 -63 -12 0 -32 25 -26 32 3 3
-8 11 -25 18 -45 19 -45 8 0 -37 45 -46 47 -50 23 -56 -11 -2 -3 -8 23 -15 55
-16 87 -42 108 -90 14 -31 28 -44 60 -56 51 -20 56 -20 56 -1 0 8 -7 15 -15
15 -9 0 -20 12 -26 27 -6 16 -17 35 -25 44 -8 9 -14 23 -12 30 2 9 -5 13 -19
11 -23 -3 -107 73 -98 88 3 5 -14 33 -38 62 -29 36 -52 54 -70 56 -15 2 -27 7
-27 11 0 8 -125 111 -135 111 -8 0 -38 -30 -34 -34 2 -1 25 -10 51 -20 25 -9
51 -23 57 -30 9 -11 0 -11 -47 -4 -79 12 -234 87 -331 160 l-23 17 37 -1 c53
-2 63 20 25 54 -16 15 -30 30 -30 33 0 3 14 5 30 5 22 0 41 -11 70 -42 31 -31
44 -38 52 -30 16 16 -39 63 -107 92 -27 12 -63 29 -80 37 -358 182 -527 258
-640 289 -65 18 -91 17 -40 -2z m625 -274 c13 -9 13 -10 0 -10 -8 0 -22 5 -30
10 -13 9 -13 10 0 10 8 0 22 -5 30 -10z m468 -380 c8 -4 -3 -6 -25 -4 -53 3
-53 3 -53 15 0 11 52 4 78 -11z"/>
<path d="M13524 17671 c7 -10 86 -20 86 -10 0 10 -28 19 -61 19 -17 0 -28 -4
-25 -9z"/>
<path d="M13335 17620 c3 -5 30 -10 58 -9 38 0 47 3 32 9 -29 12 -98 12 -90 0z"/>
<path d="M13476 17544 c-18 -26 -18 -26 0 -21 11 3 32 8 48 12 l29 6 -28 15
c-15 8 -28 14 -29 14 0 0 -9 -12 -20 -26z"/>
<path d="M13813 17489 c7 -4 41 -10 76 -13 47 -6 76 -15 107 -37 23 -16 49
-29 56 -29 7 0 25 -13 40 -30 22 -26 31 -29 60 -24 40 8 42 10 33 23 -3 6 -16
11 -28 11 -12 0 -39 9 -60 20 -20 11 -42 20 -48 20 -6 0 -27 14 -46 30 -18 17
-28 30 -20 30 7 0 19 -6 25 -12 10 -10 15 -10 20 -1 4 6 18 13 32 16 14 3 -39
4 -117 4 -78 -1 -136 -5 -130 -8z"/>
<path d="M13390 17479 c-41 -16 -60 -40 -60 -74 0 -42 7 -47 42 -29 35 18 118
92 118 105 0 12 -69 10 -100 -2z"/>
<path d="M12925 17450 c-3 -5 3 -10 14 -10 11 0 23 5 26 10 3 6 -3 10 -14 10
-11 0 -23 -4 -26 -10z"/>
<path d="M12820 17415 c-29 -17 -19 -20 13 -5 21 10 21 10 -1 -7 -13 -10 -48
-39 -79 -65 -31 -26 -59 -45 -64 -43 -4 3 -11 0 -15 -6 -3 -6 0 -15 7 -20 12
-7 12 -13 -1 -35 -22 -40 -44 -44 -37 -8 5 27 4 28 -9 9 -8 -11 -17 -31 -20
-45 -13 -63 -31 -85 -103 -125 -75 -41 -141 -103 -141 -133 0 -9 -14 -54 -30
-100 -16 -46 -32 -104 -35 -130 -7 -57 -44 -142 -61 -142 -14 0 -41 -39 -46
-66 -2 -14 3 -19 22 -19 23 -1 25 -4 23 -41 -1 -22 -13 -62 -27 -88 -14 -27
-26 -60 -26 -73 0 -42 30 -23 72 47 21 36 49 70 62 77 49 26 126 144 126 194
0 15 -6 17 -35 12 -39 -6 -46 8 -20 43 8 10 15 31 15 46 0 15 5 30 11 34 9 5
10 -1 5 -22 l-7 -29 41 40 c57 54 91 126 100 206 9 78 24 102 99 156 83 58
228 188 287 257 48 55 -53 28 -118 -32 -52 -48 -49 0 2 56 17 17 40 32 51 32
12 0 19 7 19 20 0 24 -42 27 -80 5z m-480 -845 c-6 -11 -18 -20 -28 -20 -13 0
-12 4 8 20 31 25 33 25 20 0z"/>
<path d="M14305 17340 c3 -5 11 -10 16 -10 6 0 7 5 4 10 -3 6 -11 10 -16 10
-6 0 -7 -4 -4 -10z"/>
<path d="M14430 17326 c0 -8 12 -28 26 -45 19 -22 34 -31 57 -31 l31 0 -27 28
c-14 15 -40 35 -57 45 -25 15 -30 16 -30 3z"/>
<path d="M14390 17270 c0 -5 9 -10 21 -10 11 0 17 5 14 10 -3 6 -13 10 -21 10
-8 0 -14 -4 -14 -10z"/>
<path d="M13192 17238 c-12 -18 -32 -44 -46 -57 -14 -14 -26 -35 -26 -48 0
-50 37 -15 75 71 29 66 28 84 -3 34z"/>
<path d="M11593 17175 c-33 -32 -40 -42 -22 -33 24 12 88 78 76 78 -3 0 -27
-20 -54 -45z"/>
<path d="M11810 17105 c-19 -19 -30 -35 -25 -35 13 0 75 50 75 61 0 17 -16 9
-50 -26z"/>
<path d="M11653 17076 c-43 -49 -46 -55 -33 -71 24 -28 48 -10 54 40 1 6 9 13
19 17 23 10 22 24 -2 31 -12 3 -27 -3 -38 -17z"/>
<path d="M11571 16964 c-17 -26 -34 -64 -37 -83 -4 -21 -18 -45 -33 -58 -32
-28 -45 -29 -31 -4 14 27 13 31 -8 31 -24 0 -52 -32 -87 -98 -26 -47 -95 -123
-122 -133 -6 -2 -36 -60 -68 -129 -33 -71 -68 -134 -83 -146 -24 -19 -24 -22
-8 -31 17 -10 17 -11 -3 -30 -23 -21 -52 -100 -50 -137 0 -12 7 3 15 33 17 64
21 71 39 71 7 0 22 12 33 28 15 21 17 31 9 44 -14 22 -2 35 18 18 12 -10 18
-10 30 0 9 7 13 20 10 28 -8 21 14 92 39 127 11 16 26 38 31 49 6 11 16 21 23
24 19 6 15 -60 -8 -125 -11 -31 -16 -53 -13 -49 12 11 60 97 86 152 14 28 30
55 36 59 7 3 24 25 38 48 14 23 62 89 107 147 75 98 81 108 81 152 -1 26 -4
50 -7 54 -4 3 -21 -15 -37 -42z"/>
<path d="M14776 16992 c-11 -11 -6 -19 19 -30 38 -17 47 -15 36 7 -10 19 -45
34 -55 23z"/>
<path d="M14526 16945 c-37 -14 -73 -29 -80 -34 -6 -5 -30 -14 -53 -21 -27 -8
-60 -31 -94 -66 -29 -30 -61 -54 -69 -54 -17 0 -102 -61 -95 -68 2 -2 16 5 31
17 17 13 41 21 68 21 45 1 62 11 89 53 10 16 37 37 60 47 53 23 181 50 207 43
21 -6 28 -33 8 -33 -6 0 -9 -3 -5 -6 3 -3 19 0 34 8 27 13 34 12 98 -19 39
-18 82 -33 96 -33 15 0 46 -7 69 -15 23 -8 61 -15 84 -15 38 1 40 2 22 15 -11
8 -30 15 -42 15 -12 0 -32 8 -45 19 -13 10 -47 23 -75 29 -65 14 -150 63 -146
84 1 10 -8 18 -25 21 -16 3 -37 8 -48 11 -11 3 -51 -6 -89 -19z"/>
<path d="M11341 16916 c-20 -21 -22 -30 -14 -48 11 -22 12 -22 28 15 21 51 15
64 -14 33z"/>
<path d="M15024 16886 c6 -46 42 -106 64 -106 13 0 17 9 16 36 -1 30 -9 43
-43 71 l-41 35 4 -36z"/>
<path d="M11970 16891 c-86 -28 -195 -87 -225 -123 -15 -18 -23 -34 -18 -35 5
-2 46 17 91 42 45 25 104 50 130 56 46 10 106 54 96 71 -6 10 -7 10 -74 -11z"/>
<path d="M15128 16715 c-4 -21 17 -61 53 -105 20 -24 20 -24 9 -2 -9 19 -8 27
6 43 17 19 14 23 -18 20 -10 -1 -18 4 -18 11 0 8 -6 23 -14 33 -13 19 -14 19
-18 0z"/>
<path d="M15310 16673 c0 -5 11 -19 24 -30 13 -11 26 -27 28 -34 7 -18 15 -10
23 22 6 22 3 27 -18 33 -14 3 -32 9 -41 12 -9 3 -16 2 -16 -3z"/>
<path d="M11477 16614 c-16 -19 -27 -38 -24 -40 3 -3 14 7 24 23 43 62 43 72
0 17z"/>
<path d="M15410 16640 c0 -5 5 -10 11 -10 5 0 7 5 4 10 -3 6 -8 10 -11 10 -2
0 -4 -4 -4 -10z"/>
<path d="M13924 16611 c-42 -25 -47 -36 -32 -61 15 -23 17 -23 38 -10 13 8 13
11 1 19 -20 13 -6 39 24 47 14 3 25 10 25 15 0 14 -23 10 -56 -10z"/>
<path d="M15392 16592 c-10 -7 -6 -15 14 -35 31 -31 60 -37 45 -9 -5 9 -12 25
-15 35 -6 18 -23 22 -44 9z"/>
<path d="M15397 16521 c-4 -17 -3 -21 5 -13 5 5 8 16 6 23 -3 8 -7 3 -11 -10z"/>
<path d="M13485 16500 c3 -5 11 -10 16 -10 6 0 7 5 4 10 -3 6 -11 10 -16 10
-6 0 -7 -4 -4 -10z"/>
<path d="M13392 16470 c7 -11 17 -20 23 -20 5 0 20 -3 33 -6 13 -4 22 -2 22 5
0 6 -10 11 -22 11 -17 0 -19 3 -10 9 10 6 8 10 -10 14 -42 12 -50 9 -36 -13z"/>
<path d="M13200 16470 c-30 -4 -66 -10 -79 -14 l-23 -8 29 -18 29 -17 12 -164
c7 -90 19 -310 27 -489 20 -444 35 -682 44 -700 5 -8 17 -16 29 -18 23 -4 24
3 42 448 19 455 43 854 56 905 8 34 -17 54 -68 55 -37 0 -59 14 -36 23 16 7 7
6 -62 -3z"/>
<path d="M12965 16460 c3 -5 -3 -10 -14 -10 -12 0 -21 -5 -21 -11 0 -13 40 -2
60 17 12 12 11 14 -8 14 -13 0 -20 -4 -17 -10z"/>
<path d="M13522 16430 c-17 -28 -15 -101 4 -128 8 -12 12 -22 9 -22 -4 0 1 -7
9 -16 22 -22 20 -61 -3 -69 -19 -6 -19 -22 -15 -608 3 -331 9 -633 14 -672 5
-38 12 -93 15 -122 3 -28 12 -64 20 -80 8 -15 15 -46 15 -69 0 -22 3 -44 8
-48 4 -4 7 -15 7 -24 2 -73 19 -222 25 -222 12 0 80 85 125 155 l39 60 7 280
c4 154 10 325 14 380 3 55 10 231 15 390 7 202 14 305 24 340 8 28 20 66 25
85 6 19 12 48 12 65 1 17 3 22 6 12 3 -10 9 -14 16 -10 8 4 7 1 -1 -9 -11 -14
-9 -19 14 -37 28 -22 54 -28 54 -11 0 6 -6 10 -14 10 -8 0 -25 23 -39 51 -15
33 -27 47 -32 39 -5 -8 -17 5 -35 37 -42 74 -203 200 -285 224 -12 3 -19 12
-17 22 4 23 -20 21 -36 -3z"/>
<path d="M13026 16425 c-15 -8 -37 -15 -47 -15 -10 0 -20 -4 -23 -8 -8 -13
-51 -6 -48 7 4 21 -10 11 -70 -49 -34 -33 -67 -60 -74 -60 -17 0 -52 -51 -47
-67 3 -7 0 -13 -6 -13 -6 0 -11 -8 -11 -17 0 -13 10 -7 38 20 l37 36 0 -202
c0 -111 2 -653 3 -1205 2 -551 1 -1006 -1 -1010 -3 -4 -8 -101 -12 -217 -3
-115 -9 -213 -11 -217 -3 -4 -1 -8 5 -8 15 0 40 40 52 82 6 25 22 47 47 65 63
48 94 77 107 103 10 20 9 120 -2 505 -10 363 -11 551 -3 773 5 160 13 545 16
855 7 577 10 617 47 617 6 0 23 9 37 20 30 24 9 27 -34 5z"/>
<path d="M12638 16420 c-4 -8 -23 -63 -42 -121 -19 -59 -48 -129 -65 -156 -17
-28 -31 -54 -31 -59 0 -5 -11 -25 -24 -44 -13 -19 -38 -64 -57 -100 -18 -36
-62 -109 -98 -163 -124 -185 -159 -275 -168 -432 -3 -59 -11 -109 -19 -122
-16 -25 -9 -52 18 -71 19 -14 25 -42 8 -42 -5 0 -10 -4 -10 -10 0 -21 16 -8
42 34 39 66 43 83 18 96 -11 6 -20 18 -20 26 0 8 5 12 10 9 13 -8 13 1 0 25
-13 24 -13 58 -1 156 12 101 49 180 170 354 121 176 151 222 215 332 55 95 64
114 47 104 -4 -3 -2 22 6 56 14 59 14 159 1 128z"/>
<path d="M15370 16323 c0 -13 0 -26 -1 -30 0 -4 4 -9 10 -11 14 -5 14 28 1 48
-8 12 -10 11 -10 -7z"/>
<path d="M15590 16281 c0 -10 7 -24 15 -31 8 -7 15 -18 15 -25 0 -7 12 -21 27
-31 l28 -17 -19 28 c-10 16 -27 43 -38 62 -23 38 -28 41 -28 14z"/>
<path d="M15406 16169 c-9 -47 -7 -122 4 -139 8 -13 10 -12 10 3 0 10 10 31
22 47 21 29 21 30 3 70 -24 53 -31 56 -39 19z"/>
<path d="M12716 16148 c-3 -13 -6 -64 -6 -115 0 -111 -10 -137 -63 -158 l-40
-16 6 -112 c17 -297 25 -346 41 -245 4 23 13 49 20 58 8 8 16 29 19 45 3 17
10 50 15 75 11 48 28 490 19 490 -2 0 -7 -10 -11 -22z"/>
<path d="M15670 16159 c0 -6 15 -50 34 -98 25 -63 36 -109 41 -173 4 -49 10
-88 14 -88 4 0 7 -17 7 -37 0 -21 10 -101 23 -177 12 -76 21 -166 19 -200 l-3
-61 -8 80 c-5 44 -10 86 -12 92 -7 23 -31 3 -30 -25 0 -16 -5 -26 -12 -25 -6
2 -15 -7 -18 -18 -8 -25 13 -43 32 -28 9 8 13 2 18 -25 4 -19 5 -41 2 -48 -3
-7 -6 -3 -6 9 -1 28 -19 39 -27 16 -3 -10 -11 -28 -16 -40 -6 -12 -8 -30 -4
-39 16 -41 45 -224 47 -294 3 -115 -11 -351 -22 -372 -6 -11 -12 -37 -14 -59
-10 -104 -47 -244 -85 -319 -16 -30 -37 -80 -48 -110 -11 -30 -32 -85 -46
-122 -14 -38 -24 -68 -22 -68 2 0 18 25 36 56 21 37 36 54 45 50 17 -6 53 61
96 180 36 97 59 186 107 399 l35 160 -1 400 c0 412 -6 485 -46 605 -8 25 -28
97 -44 160 -35 132 -92 268 -92 219z m77 -1751 c-3 -8 -6 -5 -6 6 -1 11 2 17
5 13 3 -3 4 -12 1 -19z m-16 -61 c-8 -8 -11 -7 -11 4 0 9 3 19 7 23 4 4 9 2
11 -4 3 -7 -1 -17 -7 -23z m-25 -72 c-10 -40 -26 -78 -31 -73 -6 6 25 98 32
98 3 0 2 -11 -1 -25z"/>
<path d="M10883 16128 c-19 -25 -24 -38 -14 -38 11 0 35 39 28 46 -2 3 -9 -1
-14 -8z"/>
<path d="M10990 16063 c-51 -58 -60 -80 -59 -141 1 -57 11 -94 26 -99 8 -3 10
14 6 57 -6 59 -2 73 38 165 5 11 16 30 25 43 28 38 7 24 -36 -25z"/>
<path d="M13946 15920 c-46 -166 -46 -358 -2 -630 16 -97 46 -192 62 -197 25
-8 79 54 115 132 56 121 69 168 69 253 0 42 4 93 10 112 10 35 -4 70 -39 96
-13 10 -13 14 -2 28 15 18 1 22 -16 5 -8 -8 -11 -1 -10 27 0 33 -9 96 -29 191
-2 12 -16 35 -30 52 -20 24 -34 31 -63 31 l-37 0 -28 -100z"/>
<path d="M10816 15993 c-6 -14 -5 -15 5 -6 7 7 10 15 7 18 -3 3 -9 -2 -12 -12z"/>
<path d="M15396 15984 c-7 -19 3 -64 14 -64 13 0 22 38 15 60 -8 24 -21 26
-29 4z"/>
<path d="M12670 15930 c0 -5 5 -10 11 -10 5 0 7 5 4 10 -3 6 -8 10 -11 10 -2
0 -4 -4 -4 -10z"/>
<path d="M15503 15823 c9 -2 23 -2 30 0 6 3 -1 5 -18 5 -16 0 -22 -2 -12 -5z"/>
<path d="M14160 15801 c11 -22 30 -37 30 -24 -1 11 -26 43 -34 43 -4 0 -2 -9
4 -19z"/>
<path d="M10844 15786 c7 -30 -8 -67 -27 -63 -13 2 -17 -52 -9 -110 6 -42 22
-32 22 13 0 34 8 42 26 24 5 -5 19 -7 31 -4 19 5 20 9 11 30 -6 13 -17 24 -25
24 -9 0 -13 15 -13 49 0 28 -5 53 -11 57 -9 5 -10 -1 -5 -20z"/>
<path d="M11456 15791 c-4 -7 -5 -15 -2 -18 9 -9 19 4 14 18 -4 11 -6 11 -12
0z"/>
<path d="M14446 15772 c-4 -18 -5 -36 -2 -39 11 -12 17 5 14 39 l-3 33 -9 -33z"/>
<path d="M10726 15761 c-4 -7 -5 -15 -2 -18 9 -9 19 4 14 18 -4 11 -6 11 -12
0z"/>
<path d="M14862 15703 c-7 -11 -5 -31 5 -60 9 -24 13 -47 10 -50 -4 -3 -27 13
-53 36 -47 41 -84 53 -84 27 0 -25 49 -120 79 -156 30 -34 31 -34 37 -12 8 29
38 28 58 -3 20 -30 56 -34 56 -6 0 29 -41 133 -62 157 -10 11 -18 35 -18 52 0
35 -13 42 -28 15z"/>
<path d="M10702 15640 c-26 -42 -31 -100 -7 -80 16 14 39 85 32 103 -2 7 -14
-4 -25 -23z"/>
<path d="M12371 15651 c-8 -14 -7 -22 4 -31 13 -11 15 -8 15 19 0 36 -5 39
-19 12z"/>
<path d="M10601 15638 c-69 -10 -138 -36 -189 -75 -37 -28 -71 -90 -108 -200
l-27 -78 2 -405 c2 -399 4 -433 23 -457 16 -19 45 24 63 93 13 49 25 69 78
122 72 73 125 102 188 102 49 0 178 42 191 62 4 7 8 20 8 28 0 8 9 30 21 49
11 18 19 34 17 36 -2 1 -23 13 -48 25 -66 33 -108 67 -127 103 -18 35 -42 182
-43 264 0 29 -5 73 -12 97 -10 38 -8 55 14 140 15 53 23 97 20 99 -4 2 -36 -1
-71 -5z"/>
<path d="M14416 15623 c-3 -3 -6 -15 -6 -27 0 -15 -3 -17 -12 -8 -13 13 -38
-1 -38 -23 0 -7 -12 -11 -31 -10 -24 1 -33 -4 -45 -26 -19 -38 -17 -51 10 -71
24 -17 24 -17 40 20 14 35 15 35 15 10 1 -19 5 -26 15 -22 16 6 26 -7 43 -56
10 -29 10 -39 -3 -57 -16 -26 -25 -28 -42 -11 -14 14 -16 78 -2 78 6 0 10 5
10 10 0 17 -29 11 -39 -8 -6 -10 -7 -28 -4 -40 5 -22 -3 -27 -36 -22 -7 1 -22
-7 -32 -17 -10 -10 -25 -24 -33 -30 -8 -7 -18 -33 -22 -59 -6 -42 -38 -112
-100 -221 -13 -23 -24 -46 -24 -52 0 -22 30 -10 65 25 29 28 35 42 31 60 -5
17 -2 26 9 31 9 3 14 12 11 20 -3 8 -2 11 3 8 5 -3 12 -1 16 5 3 6 24 19 46
30 35 19 39 24 39 60 0 72 33 116 66 89 15 -13 44 3 44 25 1 6 14 26 30 45 29
34 29 34 55 17 21 -14 29 -15 41 -5 12 10 16 8 21 -9 14 -55 63 -1 68 76 2 38
1 38 -24 13 -25 -25 -98 -46 -114 -32 -7 5 -25 11 -42 13 -24 2 -31 8 -33 31
-2 15 1 27 7 27 6 0 10 -6 9 -12 -2 -8 10 -14 31 -16 32 -3 33 -2 26 25 -3 15
-7 39 -8 53 -1 14 -6 31 -10 37 -11 18 -43 34 -51 26z"/>
<path d="M15050 15599 c0 -8 7 -24 15 -35 11 -15 14 -16 15 -3 0 8 -7 24 -15
35 -11 15 -14 16 -15 3z"/>
<path d="M12462 15582 c-8 -6 0 -12 25 -20 43 -13 50 -10 28 12 -18 18 -33 20
-53 8z"/>
<path d="M12281 15448 c1 -187 26 -678 34 -686 4 -5 9 70 10 184 0 23 6 49 14
58 9 10 11 28 7 52 -5 23 -3 41 6 51 9 11 17 79 24 202 l12 186 -24 20 c-13
11 -37 29 -54 38 l-30 18 1 -123z"/>
<path d="M10764 15547 c3 -10 6 -30 6 -43 0 -13 5 -24 10 -24 16 0 12 44 -6
66 -14 17 -15 17 -10 1z"/>
<path d="M15100 15556 c0 -2 7 -22 15 -46 11 -31 12 -47 4 -62 -11 -20 -12
-19 -40 12 -57 62 -92 14 -40 -57 26 -36 35 -41 68 -41 31 0 43 -6 66 -33 24
-30 26 -35 12 -45 -34 -25 -6 -46 34 -24 14 7 24 3 46 -20 25 -26 65 -41 65
-25 0 9 -32 58 -54 83 l-19 22 21 0 c13 0 22 6 22 15 0 23 -27 72 -48 87 -10
7 -27 25 -36 41 -10 15 -24 27 -32 27 -7 0 -26 16 -41 35 -24 30 -43 44 -43
31z m124 -195 c-11 -12 -42 38 -47 74 l-6 40 29 -55 c15 -30 26 -57 24 -59z"/>
<path d="M10702 15495 c2 -25 8 -40 16 -40 8 0 20 -11 27 -25 19 -33 18 -43 0
-36 -19 7 -20 -17 -1 -33 10 -9 16 -8 26 4 20 24 3 87 -36 131 l-35 39 3 -40z"/>
<path d="M12420 15520 c8 -5 22 -9 30 -9 10 0 8 3 -5 9 -27 12 -43 12 -25 0z"/>
<path d="M14630 15520 c0 -5 5 -10 11 -10 5 0 7 5 4 10 -3 6 -8 10 -11 10 -2
0 -4 -4 -4 -10z"/>
<path d="M14680 15512 c0 -4 8 -15 18 -24 9 -9 23 -24 31 -33 23 -29 23 -9 -1
28 -21 33 -48 49 -48 29z"/>
<path d="M15710 15510 c0 -5 7 -10 16 -10 8 0 12 5 9 10 -3 6 -10 10 -16 10
-5 0 -9 -4 -9 -10z"/>
<path d="M14770 15455 c-12 -14 -11 -18 1 -26 20 -12 34 -6 34 16 0 24 -19 30
-35 10z"/>
<path d="M15681 15454 c0 -11 3 -14 6 -6 3 7 2 16 -1 19 -3 4 -6 -2 -5 -13z"/>
<path d="M14210 15446 c0 -8 5 -18 10 -21 6 -3 10 3 10 14 0 12 -4 21 -10 21
-5 0 -10 -6 -10 -14z"/>
<path d="M15680 15385 c0 -8 9 -19 20 -25 23 -12 25 -7 10 21 -13 22 -30 25
-30 4z"/>
<path d="M14195 15359 c-4 -6 -5 -12 -2 -15 2 -3 7 2 10 11 7 17 1 20 -8 4z"/>
<path d="M10786 15345 c4 -8 1 -15 -5 -15 -6 0 -11 -7 -11 -16 0 -22 44 -14
48 10 2 10 -2 22 -10 27 -20 13 -28 11 -22 -6z"/>
<path d="M15120 15298 c0 -18 18 -34 28 -24 3 4 -2 14 -11 23 -16 16 -17 16
-17 1z"/>
<path d="M10698 15273 c-20 -5 -24 -38 -7 -48 5 -4 8 -19 4 -34 -5 -22 -2 -27
15 -27 21 0 28 30 10 41 -15 9 -12 45 5 51 8 4 15 10 15 15 0 9 -13 10 -42 2z"/>
<path d="M14500 15265 c-10 -12 -10 -15 4 -15 9 0 16 7 16 15 0 8 -2 15 -4 15
-2 0 -9 -7 -16 -15z"/>
<path d="M15688 15185 c-6 -26 2 -138 16 -243 3 -22 -1 -38 -13 -50 -15 -14
-19 -40 -25 -149 -3 -73 -11 -155 -17 -183 -16 -73 -4 -85 15 -15 9 33 26 91
38 128 16 53 19 82 14 128 -4 45 -2 68 10 91 14 28 14 36 0 94 -9 35 -16 89
-17 121 -1 32 -4 69 -8 83 l-7 25 -6 -30z"/>
<path d="M10807 15184 c-8 -8 3 -34 14 -34 5 0 9 9 9 20 0 19 -11 26 -23 14z"/>
<path d="M10860 15153 c0 -15 4 -35 10 -43 8 -13 10 -13 14 0 14 36 11 64 -6
68 -14 3 -18 -3 -18 -25z"/>
<path d="M15173 15163 c-4 -10 2 -23 16 -35 26 -20 30 -21 50 -9 11 7 10 13
-5 35 -22 29 -52 34 -61 9z"/>
<path d="M15450 15140 c0 -37 -6 -37 -44 -2 l-29 27 31 -47 c18 -26 32 -54 32
-63 0 -21 51 -95 66 -95 41 -1 32 -248 -16 -438 -34 -133 -35 -174 -2 -70 73
233 95 347 95 493 0 108 -15 183 -39 192 -21 8 -24 2 -27 -47 -2 -24 -9 -46
-16 -48 -9 -3 -12 5 -10 24 3 26 -25 104 -36 104 -3 0 -5 -13 -5 -30z"/>
<path d="M10842 15076 c3 -19 74 -83 83 -75 2 3 -16 25 -41 50 -32 31 -45 38
-42 25z"/>
<path d="M15125 15020 c-4 -6 -16 -10 -27 -8 -16 2 -27 -9 -48 -47 -37 -69
-85 -234 -72 -247 19 -19 39 -1 74 68 41 79 65 91 128 67 36 -14 41 -14 64 1
29 18 77 21 93 5 17 -17 37 -1 22 17 -6 8 -16 14 -21 14 -5 0 -17 7 -25 16 -9
8 -25 13 -35 11 -11 -3 -34 4 -53 16 -18 12 -48 30 -66 40 -26 14 -30 20 -19
27 11 7 12 12 4 20 -9 9 -14 9 -19 0z"/>
<path d="M15663 14965 c0 -27 2 -38 4 -22 2 15 2 37 0 50 -2 12 -4 0 -4 -28z"/>
<path d="M12158 14966 c-28 -21 -21 -26 12 -10 17 9 30 17 30 20 0 9 -26 3
-42 -10z"/>
<path d="M11030 14930 c-20 -6 -14 -8 26 -9 62 -1 130 -24 161 -53 28 -26 43
-16 19 11 -44 48 -140 72 -206 51z"/>
<path d="M12110 14870 c0 -18 4 -29 10 -25 6 3 10 15 10 25 0 10 -4 22 -10 25
-6 4 -10 -7 -10 -25z"/>
<path d="M12057 14853 c-5 -8 -36 -14 -85 -15 l-77 -1 60 -7 c33 -4 78 -11
100 -15 22 -3 35 -3 29 2 -7 4 -13 17 -16 28 -2 14 -6 16 -11 8z"/>
<path d="M14150 14851 c0 -6 5 -13 10 -16 6 -3 10 1 10 9 0 9 -4 16 -10 16 -5
0 -10 -4 -10 -9z"/>
<path d="M11260 14822 c0 -6 10 -13 23 -15 18 -4 17 -5 -6 -6 -38 -1 -30 -24
12 -32 28 -6 31 -4 26 12 -7 20 9 26 20 8 4 -6 20 -7 38 -4 39 9 59 25 22 17
-15 -2 -30 0 -34 7 -10 15 -101 27 -101 13z"/>
<path d="M11620 14815 c0 -10 10 -15 31 -15 27 0 30 2 19 15 -7 8 -21 15 -31
15 -11 0 -19 -7 -19 -15z"/>
<path d="M14080 14806 c-12 -33 -12 -36 -1 -36 10 0 25 50 17 58 -3 2 -10 -7
-16 -22z"/>
<path d="M11781 14799 c-61 -12 -63 -19 -5 -19 27 0 58 7 68 15 20 15 20 15 0
14 -10 -1 -39 -5 -63 -10z"/>
<path d="M11490 14779 c0 -14 7 -15 50 -6 28 5 50 12 50 16 0 3 -22 6 -50 6
-39 0 -50 -3 -50 -16z"/>
<path d="M11381 14761 c-10 -7 -10 -10 -1 -16 6 -4 16 -3 22 3 13 13 -4 23
-21 13z"/>
<path d="M11567 14753 c-4 -3 -7 -124 -7 -267 0 -144 -6 -479 -14 -746 -8
-267 -17 -648 -19 -848 -4 -334 -3 -363 12 -356 9 4 30 9 47 11 25 4 35 -1 54
-24 l22 -28 -7 400 c-17 907 -24 1175 -34 1265 -13 115 -14 150 -8 403 l4 197
-22 0 c-12 0 -25 -3 -28 -7z"/>
<path d="M11312 14553 c0 -98 -5 -340 -11 -538 -6 -198 -13 -571 -16 -830 -2
-258 -7 -597 -11 -752 -4 -219 -3 -283 6 -283 19 0 131 69 168 104 l34 31 -7
240 c-13 499 -35 1094 -44 1210 -6 66 -13 296 -16 510 -4 215 -8 410 -9 435
l-2 45 -46 3 -46 3 0 -178z"/>
<path d="M14960 14690 c0 -13 5 -20 13 -17 6 2 12 10 12 17 0 7 -6 15 -12 18
-8 2 -13 -5 -13 -18z"/>
<path d="M12313 14650 c0 -25 2 -35 4 -22 2 12 2 32 0 45 -2 12 -4 2 -4 -23z"/>
<path d="M13855 14650 c-4 -14 -19 -45 -34 -70 -15 -25 -30 -54 -34 -64 -6
-15 -5 -17 7 -7 19 16 78 141 73 155 -2 6 -7 0 -12 -14z"/>
<path d="M15857 14623 c-18 -107 -18 -108 -9 -88 11 23 26 125 19 125 -2 0 -7
-17 -10 -37z"/>
<path d="M13819 14487 c-20 -18 -68 -78 -107 -133 -40 -56 -79 -108 -88 -115
-9 -7 -21 -25 -26 -39 l-11 -25 -15 38 c-8 20 -18 37 -23 37 -15 0 -21 -22
-10 -33 15 -15 14 -44 -1 -50 -8 -3 -6 -6 5 -6 26 -1 21 -14 -24 -62 -54 -58
-149 -174 -149 -183 0 -20 29 5 112 99 51 58 99 105 105 105 7 0 13 11 13 25
0 15 14 41 34 63 47 50 67 78 101 137 16 28 41 63 56 78 33 33 73 87 68 92 -2
2 -20 -11 -40 -28z"/>
<path d="M11763 14488 c2 -7 -5 -23 -16 -35 -22 -25 -16 -56 9 -51 9 2 22 12
28 23 6 11 15 23 19 26 17 12 2 44 -22 47 -16 3 -22 0 -18 -10z"/>
<path d="M14873 14493 c-18 -6 -16 -33 1 -33 19 0 31 19 20 30 -5 4 -15 5 -21
3z"/>
<path d="M15826 14464 c-4 -14 -5 -28 -3 -31 3 -2 8 8 11 23 4 14 5 28 3 31
-3 2 -8 -8 -11 -23z"/>
<path d="M13750 14458 c-12 -22 -12 -22 6 -6 10 10 15 20 12 24 -4 3 -12 -5
-18 -18z"/>
<path d="M12310 14308 c0 -42 -6 -138 -14 -214 -8 -77 -17 -294 -20 -484 -4
-190 -9 -398 -12 -462 l-6 -118 29 0 c20 0 41 10 62 30 29 28 31 35 31 98 0
232 -24 899 -36 1008 -8 71 -16 146 -18 167 -7 67 -16 53 -16 -25z"/>
<path d="M12052 14265 c-9 -54 -16 -213 -18 -400 -4 -299 -17 -665 -30 -867
-7 -96 -7 -98 15 -98 36 0 84 25 131 68 25 23 53 44 62 47 18 6 18 0 3 165 -4
36 -10 166 -15 290 -9 238 -30 374 -69 448 -12 23 -23 76 -30 142 -6 58 -16
137 -21 175 -6 39 -11 81 -12 95 -2 14 -9 -15 -16 -65z"/>
<path d="M14637 14259 c-10 -11 -16 -27 -13 -35 7 -19 23 -18 29 4 2 9 8 25
12 35 10 24 -7 22 -28 -4z"/>
<path d="M14335 14145 c-8 -21 -13 -40 -10 -43 2 -3 12 12 20 33 9 20 14 39
11 42 -3 3 -12 -12 -21 -32z"/>
<path d="M13313 14033 c-25 -5 -29 -19 -13 -43 8 -13 10 -12 10 3 0 19 11 22
26 7 14 -14 38 5 31 24 -6 16 -13 17 -54 9z"/>
<path d="M15440 14010 c-7 -17 -10 -33 -8 -36 3 -2 11 9 18 26 7 17 10 33 8
36 -3 2 -11 -9 -18 -26z"/>
<path d="M14470 13985 c-21 -23 -22 -25 -5 -31 19 -8 45 18 45 43 0 20 -14 16
-40 -12z"/>
<path d="M14587 13953 c-4 -3 -7 -11 -7 -17 0 -6 5 -5 12 2 6 6 9 14 7 17 -3
3 -9 2 -12 -2z"/>
<path d="M14360 13900 c0 -5 5 -10 10 -10 6 0 10 5 10 10 0 6 -4 10 -10 10 -5
0 -10 -4 -10 -10z"/>
<path d="M13263 13821 c-120 -108 -273 -268 -273 -288 0 -10 65 48 166 147 91
91 172 171 180 178 13 13 19 32 9 32 -2 0 -39 -31 -82 -69z"/>
<path d="M13216 13872 c-13 -12 -5 -32 13 -32 26 0 35 27 11 33 -10 3 -21 2
-24 -1z"/>
<path d="M10645 13848 c-10 -35 -16 -292 -25 -1113 -5 -495 -12 -1055 -16
-1245 l-6 -345 20 20 c12 11 42 58 68 105 29 53 74 114 121 164 l76 78 -7 132
c-3 72 -11 385 -16 696 -10 552 -42 1230 -60 1300 -6 19 -10 47 -10 63 0 25
-3 27 -38 27 -40 0 -62 14 -62 40 0 8 -5 32 -11 53 -10 37 -26 49 -34 25z"/>
<path d="M15441 13784 c-12 -15 -22 -33 -22 -40 -4 -45 -21 -79 -58 -119 -43
-47 -91 -116 -91 -132 0 -13 -49 -72 -151 -183 -38 -41 -69 -82 -69 -92 0 -10
-4 -18 -10 -18 -5 0 -10 -4 -10 -10 0 -35 122 104 275 315 112 154 133 189
144 232 5 21 12 46 16 56 10 25 0 21 -24 -9z"/>
<path d="M13895 13658 c-11 -6 -39 -27 -62 -46 -36 -29 -41 -37 -32 -53 12
-24 42 -24 80 -2 31 19 35 28 17 39 -8 5 -6 11 6 20 10 7 16 21 14 33 -2 17
-6 18 -23 9z"/>
<path d="M12920 13475 c-23 -19 -46 -35 -51 -35 -5 0 -9 -7 -9 -15 0 -24 13
-18 71 35 61 56 53 68 -11 15z"/>
<path d="M13548 13423 c-20 -5 -23 -29 -8 -53 8 -12 14 -10 39 14 41 39 28 55
-31 39z"/>
<path d="M13030 13397 c0 -13 7 -30 16 -38 14 -11 15 -9 12 21 -4 39 -28 54
-28 17z"/>
<path d="M12817 13383 c-4 -3 -7 -13 -7 -21 0 -12 3 -12 15 -2 8 7 15 16 15
21 0 11 -14 12 -23 2z"/>
<path d="M12672 13248 c-39 -34 -69 -64 -67 -66 5 -5 116 80 134 102 33 40 -1
21 -67 -36z"/>
<path d="M15149 13208 c-18 -24 -56 -66 -83 -93 -89 -88 -176 -198 -186 -235
-5 -19 -12 -406 -17 -860 -9 -959 -21 -865 102 -855 39 4 109 7 158 8 l87 2 0
1038 c0 1142 4 1079 -61 995z"/>
<path d="M12515 13159 c-11 -17 1 -21 15 -4 8 9 8 15 2 15 -6 0 -14 -5 -17
-11z"/>
<path d="M12460 13096 c0 -16 41 -29 53 -17 5 5 -5 13 -22 19 -25 9 -31 8 -31
-2z"/>
<path d="M12843 13083 c-15 -5 -17 -23 -4 -23 5 0 11 7 15 15 3 8 4 15 3 14
-1 0 -8 -3 -14 -6z"/>
<path d="M12960 13086 c0 -2 16 -13 35 -25 25 -15 35 -27 35 -46 0 -26 14 -32
40 -15 12 7 12 12 -4 29 -24 26 -106 70 -106 57z"/>
<path d="M12387 13004 c-62 -61 -78 -84 -59 -84 10 0 142 133 142 143 0 18
-21 3 -83 -59z"/>
<path d="M12611 13061 c-11 -7 -9 -14 12 -35 32 -32 41 -32 69 -4 16 16 17 20
5 15 -11 -4 -22 1 -29 13 -14 21 -34 25 -57 11z"/>
<path d="M12748 13053 c7 -3 16 -2 19 1 4 3 -2 6 -13 5 -11 0 -14 -3 -6 -6z"/>
<path d="M13268 13053 c7 -3 16 -2 19 1 4 3 -2 6 -13 5 -11 0 -14 -3 -6 -6z"/>
<path d="M14964 13038 l-19 -23 23 19 c21 18 27 26 19 26 -2 0 -12 -10 -23
-22z"/>
<path d="M13210 13032 c0 -5 7 -13 16 -16 10 -4 14 -1 12 6 -5 15 -28 23 -28
10z"/>
<path d="M12746 13002 c-4 -13 -5 -26 -2 -29 10 -11 18 4 14 29 l-4 23 -8 -23z"/>
<path d="M12273 12972 c-28 -33 -29 -47 -4 -49 23 -2 36 12 45 50 8 36 -12 36
-41 -1z"/>
<path d="M12565 12990 c-4 -6 -3 -16 3 -22 13 -13 23 4 13 21 -7 10 -10 10
-16 1z"/>
<path d="M12176 12954 c-22 -21 -20 -31 5 -37 26 -7 65 33 46 45 -19 12 -34 9
-51 -8z"/>
<path d="M12707 12950 c3 -11 12 -20 19 -20 17 0 18 12 2 28 -18 18 -27 15
-21 -8z"/>
<path d="M12827 12963 c-13 -13 -7 -21 13 -16 11 3 20 9 20 14 0 10 -24 12
-33 2z"/>
<path d="M12958 12953 c7 -3 16 -2 19 1 4 3 -2 6 -13 5 -11 0 -14 -3 -6 -6z"/>
<path d="M12220 12899 c0 -5 5 -7 10 -4 6 3 10 8 10 11 0 2 -4 4 -10 4 -5 0
-10 -5 -10 -11z"/>
<path d="M12152 12888 c-18 -18 -14 -28 8 -28 11 0 20 6 20 14 0 21 -15 27
-28 14z"/>
<path d="M12243 12871 c-29 -24 -43 -51 -28 -51 9 0 75 63 75 72 0 14 -14 8
-47 -21z"/>
<path d="M12005 12860 c-3 -11 -11 -20 -18 -20 -8 0 -7 -4 1 -12 10 -10 15
-10 22 2 10 15 14 50 6 50 -3 0 -8 -9 -11 -20z"/>
<path d="M13140 12825 c0 -8 7 -15 15 -15 8 0 15 7 15 15 0 8 -7 15 -15 15 -8
0 -15 -7 -15 -15z"/>
<path d="M14646 12815 c-9 -14 -13 -25 -8 -25 5 0 19 11 32 25 18 19 20 25 8
25 -9 0 -23 -11 -32 -25z"/>
<path d="M12145 12820 c3 -5 8 -10 11 -10 2 0 4 5 4 10 0 6 -5 10 -11 10 -5 0
-7 -4 -4 -10z"/>
<path d="M12068 12803 c-9 -10 -21 -28 -27 -40 -18 -34 -51 -29 -88 14 l-33
38 30 -59 c17 -33 30 -64 30 -68 0 -5 -12 -20 -26 -33 -15 -14 -21 -25 -15
-25 7 0 9 -4 6 -10 -3 -5 -13 -10 -22 -10 -8 0 -27 -10 -41 -21 -25 -20 -25
-21 -5 -15 18 6 22 4 17 -9 -5 -13 1 -12 30 6 20 11 36 26 36 32 0 16 68 89
101 110 32 19 73 82 64 97 -10 16 -40 12 -57 -7z"/>
<path d="M12264 12759 c-18 -20 -18 -21 1 -35 24 -18 30 -18 46 3 10 11 10 14
2 9 -9 -5 -13 -1 -13 13 0 29 -15 33 -36 10z"/>
<path d="M11840 12761 c0 -6 4 -13 10 -16 6 -3 7 1 4 9 -7 18 -14 21 -14 7z"/>
<path d="M14685 12710 c-16 -17 -36 -28 -44 -25 -10 2 -62 -36 -136 -101 -139
-121 -287 -247 -339 -287 -20 -15 -36 -34 -36 -42 0 -9 -6 -12 -15 -9 -8 4
-15 2 -15 -3 0 -6 -12 -15 -26 -21 -14 -7 -22 -17 -19 -22 3 -5 0 -7 -8 -4 -8
3 -20 -2 -27 -11 -11 -13 -10 -14 6 -8 16 6 16 3 -4 -24 -18 -25 -21 -43 -20
-99 1 -38 -4 -154 -11 -259 -7 -104 -15 -259 -18 -343 -2 -84 -8 -150 -13
-147 -4 3 -10 -2 -14 -10 -7 -20 70 -78 142 -106 37 -15 87 -24 140 -27 l82
-4 0 394 c0 488 -9 820 -23 811 -30 -19 19 30 136 134 73 65 134 120 137 123
3 3 23 19 45 35 22 15 1 -10 -48 -56 l-87 -84 0 -657 0 -658 28 0 c15 0 42 -9
60 -20 27 -17 48 -20 105 -18 87 4 85 -3 86 203 2 235 -22 1375 -29 1375 -3 0
-19 -14 -35 -30z m-511 -435 c-10 -8 -23 -15 -28 -15 -6 0 -1 7 10 15 10 8 23
15 28 15 6 0 1 -7 -10 -15z"/>
<path d="M11915 12710 c3 -5 8 -10 11 -10 2 0 4 5 4 10 0 6 -5 10 -11 10 -5 0
-7 -4 -4 -10z"/>
<path d="M12094 12685 c3 -8 1 -15 -4 -15 -12 0 -12 -11 -1 -29 7 -11 14 -9
36 12 31 28 26 47 -12 47 -18 0 -24 -4 -19 -15z"/>
<path d="M11810 12555 c0 -8 4 -15 9 -15 5 0 11 7 15 15 3 9 0 15 -9 15 -8 0
-15 -7 -15 -15z"/>
<path d="M11568 12523 c6 -2 18 -2 25 0 6 3 1 5 -13 5 -14 0 -19 -2 -12 -5z"/>
<path d="M11831 12506 c-15 -18 -27 -86 -15 -86 5 0 14 15 20 33 6 17 14 40
19 50 9 21 -8 23 -24 3z"/>
<path d="M11964 12434 c-1 -13 2 -21 7 -18 11 6 12 31 2 37 -5 3 -9 -6 -9 -19z"/>
<path d="M11660 12434 c0 -12 7 -27 15 -34 8 -7 12 -16 9 -21 -3 -5 2 -9 10
-9 23 0 19 20 -9 55 -23 27 -25 28 -25 9z"/>
<path d="M11520 12352 c0 -22 4 -32 12 -30 18 6 20 22 3 43 -14 19 -14 18 -15
-13z"/>
<path d="M12156 12327 c3 -10 9 -15 12 -12 3 3 0 11 -7 18 -10 9 -11 8 -5 -6z"/>
<path d="M11730 12271 c0 -5 8 -11 18 -14 9 -2 26 -8 37 -12 11 -4 5 2 -13 14
-36 23 -42 25 -42 12z"/>
<path d="M11881 12263 c0 -6 -4 -20 -7 -30 -5 -14 -4 -15 5 -7 7 7 11 20 8 30
-3 11 -5 14 -6 7z"/>
<path d="M11830 12250 c0 -5 7 -10 15 -10 8 0 15 5 15 10 0 6 -7 10 -15 10 -8
0 -15 -4 -15 -10z"/>
<path d="M12690 12206 c0 -9 5 -16 10 -16 6 0 10 4 10 9 0 6 -4 13 -10 16 -5
3 -10 -1 -10 -9z"/>
<path d="M13618 12182 c-20 -15 -73 -47 -118 -72 -101 -56 -167 -103 -152
-108 23 -7 12 -22 -39 -53 -27 -17 -47 -34 -44 -37 6 -6 -34 -52 -47 -52 -4 0
-8 7 -8 16 0 13 -5 12 -29 -5 -16 -12 -37 -21 -46 -21 -17 0 -85 -37 -85 -46
0 -3 9 -3 19 1 23 7 37 -10 19 -22 -7 -4 -31 -8 -53 -8 -52 -1 -298 -135 -322
-176 -17 -29 -39 -39 -87 -39 -43 0 -105 -38 -99 -61 6 -22 8 -22 34 -9 10 6
19 17 19 25 0 19 23 19 60 0 47 -24 108 -6 164 50 15 15 37 25 53 25 42 0 60
14 43 34 -7 9 -11 17 -9 19 27 15 84 40 124 53 28 9 65 30 84 46 18 16 44 34
56 40 13 6 26 19 28 29 3 11 14 19 26 19 29 0 100 45 132 83 18 20 37 31 58
33 32 2 153 90 165 120 4 10 2 13 -7 8 -28 -16 51 59 83 79 19 11 38 26 42 31
25 35 -15 34 -64 -2z"/>
<path d="M11800 12169 c0 -5 5 -7 10 -4 6 3 10 8 10 11 0 2 -4 4 -10 4 -5 0
-10 -5 -10 -11z"/>
<path d="M11732 12150 c-17 -28 -15 -32 11 -28 14 2 22 10 22 22 0 27 -18 30
-33 6z"/>
<path d="M12010 12123 c8 -3 24 -14 35 -24 11 -9 40 -25 65 -33 53 -19 63 -20
55 -6 -11 17 -123 70 -147 69 -15 0 -18 -3 -8 -6z"/>
<path d="M11465 12110 c-3 -5 3 -10 14 -10 12 0 21 5 21 10 0 6 -6 10 -14 10
-8 0 -18 -4 -21 -10z"/>
<path d="M13838 12057 c-24 -18 -59 -42 -78 -54 -19 -12 -55 -43 -80 -68 -25
-26 -71 -65 -103 -86 -32 -22 -55 -45 -51 -50 3 -5 0 -17 -7 -25 -8 -10 -12
-72 -13 -211 l-1 -196 40 -22 c22 -11 51 -28 65 -37 14 -9 52 -21 85 -27 33
-5 77 -17 97 -27 34 -16 39 -16 61 -1 21 14 25 26 29 84 9 118 -10 687 -23
692 -6 2 2 16 17 32 37 39 16 37 -38 -4z"/>
<path d="M11295 12010 c-3 -11 -19 -29 -36 -40 -25 -19 -30 -19 -35 -6 -4 11
-18 -1 -50 -44 -44 -58 -45 -59 -26 -78 15 -15 21 -16 30 -6 7 7 12 18 12 24
0 5 5 10 10 10 6 0 10 -5 10 -11 0 -6 19 -9 47 -7 35 2 49 7 51 20 3 14 -4 15
-40 11 l-43 -6 31 34 c39 43 64 84 64 104 0 22 -18 19 -25 -5z"/>
<path d="M12400 12001 c-21 -17 -29 -30 -23 -34 17 -11 39 1 53 29 19 35 8 37
-30 5z"/>
<path d="M12066 12005 c-10 -26 -8 -28 27 -20 17 3 44 7 60 8 46 3 24 22 -30
25 -39 2 -52 -1 -57 -13z"/>
<path d="M11382 11978 c2 -6 10 -14 16 -16 7 -2 10 2 6 12 -7 18 -28 22 -22 4z"/>
<path d="M13289 11969 c-23 -19 -23 -20 -2 -10 12 6 25 16 28 21 10 16 -1 12
-26 -11z"/>
<path d="M12103 11964 c-18 -8 -33 -18 -33 -22 0 -14 84 -32 97 -20 7 6 22 8
33 5 32 -8 23 9 -16 32 -40 24 -38 24 -81 5z"/>
<path d="M13225 11930 c-3 -5 -2 -10 4 -10 5 0 13 5 16 10 3 6 2 10 -4 10 -5
0 -13 -4 -16 -10z"/>
<path d="M11100 11896 c0 -9 5 -16 10 -16 6 0 10 4 10 9 0 6 -4 13 -10 16 -5
3 -10 -1 -10 -9z"/>
<path d="M11477 11864 c-8 -8 1 -24 14 -24 5 0 9 7 9 15 0 15 -12 20 -23 9z"/>
<path d="M11506 11840 c-20 -40 -20 -40 -1 -40 8 0 15 6 15 14 0 8 5 16 12 18
8 3 8 9 1 22 -9 17 -12 15 -27 -14z"/>
<path d="M11923 11863 c-7 -2 -13 -13 -13 -23 0 -10 -22 -34 -51 -55 -54 -38
-62 -67 -26 -89 14 -9 21 -7 31 7 7 9 25 17 39 17 19 0 33 11 56 47 30 45 31
46 11 60 -11 8 -20 21 -20 29 0 14 -6 16 -27 7z"/>
<path d="M11655 11830 c-3 -5 -1 -10 4 -10 6 0 11 5 11 10 0 6 -2 10 -4 10 -3
0 -8 -4 -11 -10z"/>
<path d="M11410 11770 c-8 -5 -11 -12 -8 -16 10 -9 38 3 38 16 0 12 -10 13
-30 0z"/>
<path d="M12127 11763 c-4 -3 -7 -11 -7 -17 0 -6 5 -5 12 2 6 6 9 14 7 17 -3
3 -9 2 -12 -2z"/>
<path d="M11115 11679 c-4 -6 -5 -12 -2 -15 2 -3 7 2 10 11 7 17 1 20 -8 4z"/>
<path d="M11021 11638 c-6 -18 -12 -54 -14 -79 -5 -55 -14 -72 -34 -65 -19 8
-79 -43 -135 -114 -56 -71 -99 -109 -121 -110 -10 0 -17 -6 -16 -12 1 -7 -3
-25 -9 -41 -13 -30 -5 -147 9 -147 5 0 9 6 9 14 0 7 9 25 20 39 11 14 20 28
20 32 0 4 -9 5 -20 2 -13 -3 -20 0 -20 9 0 8 7 14 16 14 13 0 15 7 11 35 -5
32 -3 37 38 65 24 16 47 30 52 31 4 0 31 26 58 58 28 31 60 65 73 74 21 17 23
17 29 0 8 -21 28 -43 39 -43 4 0 20 14 35 31 l28 32 -24 19 c-23 18 -25 26
-24 99 1 44 -1 82 -4 85 -3 3 -10 -10 -16 -28z"/>
<path d="M13245 11623 c-43 -22 -75 -54 -75 -73 0 -10 -27 -37 -60 -61 -64
-46 -87 -59 -76 -40 4 6 4 11 1 11 -10 0 -69 -31 -85 -45 -8 -8 -43 -28 -78
-46 -47 -23 -68 -41 -82 -68 -10 -20 -39 -55 -64 -77 -49 -44 -53 -69 -13 -77
12 -2 0 -2 -28 0 -53 4 -98 -16 -102 -47 -2 -13 13 -14 100 -12 85 3 99 6 85
16 -16 12 -14 14 20 24 20 6 64 13 97 16 33 3 74 8 90 12 l30 6 -40 -35 c-22
-19 -43 -31 -46 -25 -4 5 -9 3 -12 -6 -4 -9 -17 -16 -29 -17 -21 0 -21 -1 -4
-8 11 -4 36 -4 55 0 20 4 56 12 81 17 85 19 239 34 257 27 14 -7 11 -10 -17
-15 -38 -9 -199 -66 -208 -75 -14 -14 12 -18 41 -6 169 70 322 97 557 101 60
2 4 17 -86 24 -43 4 -105 12 -136 18 -47 9 -71 8 -125 -5 -38 -8 -88 -18 -113
-21 -25 -3 -54 -8 -63 -12 -11 -4 -19 0 -23 12 -3 11 -10 28 -16 39 -10 18
-10 19 15 2 31 -20 143 -23 212 -6 l43 11 1 228 1 228 -37 0 c-21 0 -51 -6
-68 -15z m-175 -482 c0 -15 -41 -41 -66 -41 -10 0 -2 26 13 42 22 24 53 24 53
-1z"/>
<path d="M11802 11597 c-12 -13 -22 -26 -22 -30 0 -9 -28 -44 -60 -75 l-25
-24 29 13 c23 11 30 11 34 1 5 -17 37 -15 52 3 9 10 9 19 2 28 -13 15 -4 63
14 78 15 13 19 29 6 29 -5 0 -18 -10 -30 -23z"/>
<path d="M11294 11530 c-42 -16 -35 -28 18 -35 60 -7 112 5 116 26 2 11 -11
14 -55 15 -32 1 -68 -2 -79 -6z"/>
<path d="M12420 11432 c-39 -20 -85 -48 -102 -64 -17 -16 -46 -35 -65 -43 -18
-8 -33 -19 -33 -26 0 -7 7 -8 18 -4 34 15 62 17 62 6 0 -14 47 -15 55 -1 3 6
18 10 33 10 54 0 102 21 141 63 43 44 51 67 26 67 -8 0 -15 4 -15 9 0 23 -53
16 -120 -17z m60 -57 c0 -22 -4 -25 -40 -25 -48 0 -51 12 -7 34 43 21 47 20
47 -9z m-104 0 c-22 -17 -36 -19 -36 -7 0 14 12 22 34 22 21 -1 21 -1 2 -15z"/>
<path d="M11145 11450 c-3 -5 1 -10 9 -10 9 0 16 5 16 10 0 6 -4 10 -9 10 -6
0 -13 -4 -16 -10z"/>
<path d="M11415 11409 c-5 -16 -12 -19 -30 -15 -26 7 -50 -16 -60 -56 -6 -22
-4 -28 9 -28 9 0 19 6 22 14 6 15 38 30 89 41 31 7 55 22 55 35 0 8 -53 30
-71 30 -4 0 -11 -9 -14 -21z"/>
<path d="M11482 11364 c-32 -14 -51 -39 -38 -51 3 -3 15 2 27 12 12 11 32 18
50 17 31 -2 37 6 17 26 -14 14 -14 14 -56 -4z"/>
<path d="M13585 11290 c5 -14 2 -20 -9 -20 -9 0 -16 -4 -16 -9 0 -5 -10 -7
-22 -4 -18 4 -20 3 -12 -6 15 -16 70 -17 88 -2 14 11 13 16 -1 37 -19 29 -37
32 -28 4z"/>
<path d="M11650 11275 c-7 -8 -23 -15 -36 -15 -23 0 -54 -23 -54 -41 0 -15 36
-10 50 6 7 8 18 15 24 15 13 1 51 50 38 50 -5 0 -15 -7 -22 -15z"/>
<path d="M12141 11251 c-17 -16 -39 -32 -51 -36 -24 -8 -17 -25 11 -25 10 0
19 -4 19 -10 0 -5 6 -7 14 -4 8 3 24 0 36 -6 29 -16 87 21 107 68 17 40 11 49
-20 34 -12 -6 -35 -13 -52 -16 -16 -3 -24 -3 -17 0 6 3 12 10 12 15 0 18 -30
8 -59 -20z"/>
<path d="M11130 11155 l-45 -23 51 2 c44 1 50 4 52 24 2 26 0 26 -58 -3z"/>
<path d="M15593 11167 c35 -6 66 -6 78 0 15 6 -3 9 -58 9 l-78 0 58 -9z"/>
<path d="M11230 11160 c0 -5 17 -10 38 -9 30 0 33 2 17 9 -28 12 -55 12 -55 0z"/>
<path d="M13996 11156 c4 -12 2 -15 -9 -10 -24 9 -30 -14 -6 -26 31 -17 12
-28 -56 -33 -49 -3 -43 -4 29 -5 l88 -2 -16 25 c-9 14 -15 33 -14 42 2 9 -3
18 -10 20 -8 3 -10 -1 -6 -11z"/>
<path d="M15451 11152 c-5 -10 -32 -29 -61 -44 -28 -14 -47 -28 -43 -31 15 -9
157 -21 213 -18 30 1 61 9 69 16 11 11 -3 12 -86 8 -122 -7 -136 3 -77 54 34
29 36 33 17 33 -12 0 -27 -8 -32 -18z"/>
<path d="M12516 11145 c-20 -15 -20 -15 0 -15 11 0 29 7 40 15 19 14 19 14 -1
14 -11 0 -29 -6 -39 -14z"/>
<path d="M14976 11129 c-44 -18 -51 -18 -58 -5 -11 20 -38 21 -38 1 0 -10 -10
-15 -32 -15 -18 0 -52 -6 -74 -13 -35 -10 -39 -14 -27 -25 20 -20 145 -21 168
-2 22 18 135 26 117 8 -7 -7 -12 -15 -12 -19 0 -8 144 42 156 54 13 12 -32 8
-76 -8 -52 -18 -60 -14 -26 13 15 11 26 23 26 26 0 13 -78 4 -124 -15z"/>
<path d="M11020 11100 c-33 -18 -33 -19 -10 -19 40 -1 70 10 70 25 0 19 -18
17 -60 -6z"/>
<path d="M12420 11111 c-24 -7 -24 -7 9 -14 55 -11 65 -10 47 8 -16 16 -19 17
-56 6z"/>
<path d="M13709 11100 c24 -20 61 -25 95 -11 14 5 5 10 -34 19 -76 18 -90 16
-61 -8z"/>
<path d="M14561 11098 c-18 -12 -47 -22 -65 -23 -45 -3 -96 -16 -96 -25 0 -8
84 -20 144 -20 33 0 37 2 26 15 -10 12 -8 16 11 23 13 5 31 12 39 15 9 3 10 6
3 6 -7 1 -13 8 -13 16 0 20 -9 19 -49 -7z"/>
<path d="M14317 11079 c8 -8 16 -8 30 0 16 9 14 10 -11 11 -22 0 -27 -3 -19
-11z"/>
<path d="M14648 11083 c6 -2 18 -2 25 0 6 3 1 5 -13 5 -14 0 -19 -2 -12 -5z"/>
<path d="M13418 11073 c7 -3 16 -2 19 1 4 3 -2 6 -13 5 -11 0 -14 -3 -6 -6z"/>
<path d="M13460 11054 c-69 -7 -161 -25 -205 -38 -94 -30 -146 -33 -276 -15
-53 7 -105 9 -115 5 -18 -7 -17 -9 7 -21 14 -8 50 -30 79 -49 30 -20 57 -36
61 -36 3 0 4 12 1 26 -5 25 -4 26 44 20 51 -7 113 -17 202 -35 69 -14 214 -14
190 -1 -9 6 -52 17 -95 25 -43 9 -86 20 -95 25 -10 6 -35 10 -55 11 l-38 1 30
14 c17 8 45 11 65 8 20 -3 54 2 79 11 42 14 138 28 285 41 46 4 64 9 55 15
-18 11 -65 10 -219 -7z"/>
<path d="M10695 11040 c3 -5 11 -10 16 -10 6 0 7 5 4 10 -3 6 -11 10 -16 10
-6 0 -7 -4 -4 -10z"/>
<path d="M10747 11043 c-15 -14 -6 -31 13 -26 11 3 20 12 20 19 0 14 -22 19
-33 7z"/>
<path d="M12648 11043 c7 -3 16 -2 19 1 4 3 -2 6 -13 5 -11 0 -14 -3 -6 -6z"/>
<path d="M11453 11023 c-19 -3 -33 -10 -33 -18 0 -10 -21 -14 -77 -17 -43 -2
-82 0 -88 3 -13 9 -155 -1 -155 -11 0 -12 93 -31 168 -33 39 -1 72 2 72 7 0 5
35 6 83 2 63 -5 95 -3 137 10 l55 17 -35 9 c-19 5 -42 16 -51 24 -8 8 -22 13
-30 12 -8 0 -29 -3 -46 -5z"/>
<path d="M11663 11023 c15 -2 39 -2 55 0 15 2 2 4 -28 4 -30 0 -43 -2 -27 -4z"/>
<path d="M11825 11020 c-3 -5 0 -10 7 -10 9 0 9 -3 -2 -10 -12 -8 -9 -10 14
-10 28 0 28 -1 13 -24 -24 -36 -24 -36 266 -66 54 -5 117 -15 140 -21 22 -6
54 -8 70 -5 19 4 39 1 53 -9 29 -19 164 -26 157 -7 -6 14 13 16 22 2 11 -18
26 -10 20 10 -5 16 -2 20 17 20 21 1 20 2 -8 18 -17 9 -51 32 -75 50 -40 31
-48 33 -94 28 -30 -4 -45 -3 -37 2 18 12 -61 21 -283 32 -235 12 -273 12 -280
0z m650 -60 c3 -5 -1 -10 -9 -10 -9 0 -16 5 -16 10 0 6 4 10 9 10 6 0 13 -4
16 -10z m18 -65 c1 -5 -6 -11 -15 -13 -11 -2 -18 3 -18 13 0 17 30 18 33 0z"/>
<path d="M14932 11008 c-7 -7 -12 -15 -12 -20 0 -12 28 2 34 18 7 17 -6 18
-22 2z"/>
<path d="M14972 10984 c-42 -36 -43 -37 -27 -63 16 -25 16 -26 -2 -6 -10 11
-26 19 -36 17 -10 -2 -24 1 -31 8 -11 8 -14 6 -13 -12 0 -13 -2 -29 -4 -37 -6
-21 48 -30 91 -16 96 33 139 44 187 50 31 4 58 14 69 26 16 18 15 19 -7 28
-13 5 -46 5 -74 1 -57 -9 -65 -6 -65 21 0 31 -40 23 -88 -17z"/>
<path d="M14550 10940 c0 -25 27 -37 43 -21 9 10 8 16 -7 27 -27 19 -36 18
-36 -6z"/>
<path d="M11630 10909 c-20 -11 -46 -16 -62 -13 -15 3 -29 0 -34 -7 -9 -16
183 -7 211 9 19 11 18 11 -7 12 -15 0 -37 4 -50 8 -16 6 -34 3 -58 -9z"/>
<path d="M11048 10913 c-10 -2 -18 -9 -18 -14 0 -5 -7 -9 -16 -9 -10 0 -14 -5
-10 -16 3 -8 2 -13 -3 -9 -5 3 -16 3 -24 -1 -22 -8 -9 -44 17 -45 51 -4 92 4
108 21 10 10 26 21 38 25 11 3 20 11 20 16 0 5 10 9 23 9 12 0 29 5 37 11 11
8 -2 9 -47 5 -39 -3 -63 -2 -63 4 0 10 -30 12 -62 3z"/>
<path d="M14692 10895 c9 -10 21 -16 28 -13 7 2 -1 10 -16 17 -27 12 -28 11
-12 -4z"/>
<path d="M14820 10870 c0 -5 5 -10 10 -10 6 0 10 5 10 10 0 6 -4 10 -10 10 -5
0 -10 -4 -10 -10z"/>
<path d="M11390 10826 c-41 -10 -34 -11 75 -14 120 -3 185 3 185 16 0 11 -210
9 -260 -2z"/>
<path d="M12805 10809 c-27 -11 -62 -27 -78 -34 -20 -10 -35 -12 -53 -5 -39
15 -64 11 -29 -5 17 -8 58 -14 93 -15 43 0 94 -10 165 -34 212 -70 308 -97
328 -91 13 4 27 0 39 -10 21 -19 133 -37 163 -26 18 7 15 10 -26 26 -26 10
-52 24 -58 31 -17 21 -152 60 -157 46 -6 -18 -47 -14 -100 7 -26 10 -74 29
-107 42 -33 12 -64 26 -69 31 -6 4 -21 8 -35 8 -25 1 -25 1 7 18 65 35 -2 44
-83 11z"/>
<path d="M10894 10796 c-35 -29 -84 -44 -84 -27 0 20 -27 11 -44 -14 -20 -31
-21 -55 0 -55 9 0 27 -9 40 -19 24 -19 24 -20 4 -26 -16 -5 -18 -10 -11 -19 6
-7 7 -17 3 -21 -4 -5 1 -5 12 -1 10 3 24 2 31 -4 10 -8 17 -5 29 12 19 27 21
48 4 48 -7 0 -22 7 -32 15 -20 15 -20 15 0 30 10 8 43 26 72 40 28 14 52 32
52 40 0 8 -4 15 -9 15 -5 0 -15 2 -23 5 -7 3 -27 -6 -44 -19z"/>
<path d="M11705 10810 l-20 -9 20 1 c11 0 34 4 50 8 l30 8 -30 0 c-16 0 -39
-3 -50 -8z"/>
<path d="M11988 10813 c6 -2 18 -2 25 0 6 3 1 5 -13 5 -14 0 -19 -2 -12 -5z"/>
<path d="M12140 10805 c11 -13 6 -15 -31 -16 -32 -2 -21 -5 39 -12 65 -8 86
-7 95 3 10 10 4 11 -26 6 -29 -5 -37 -4 -32 4 9 14 -12 30 -39 30 -15 0 -16
-3 -6 -15z"/>
<path d="M14685 10810 c-3 -5 1 -10 10 -10 9 0 13 5 10 10 -3 6 -8 10 -10 10
-2 0 -7 -4 -10 -10z"/>
<path d="M11293 10803 c9 -2 25 -2 35 0 9 3 1 5 -18 5 -19 0 -27 -2 -17 -5z"/>
<path d="M14786 10789 c-9 -12 -16 -22 -14 -24 6 -5 47 -25 52 -25 5 0 -10 60
-17 66 -2 2 -11 -6 -21 -17z"/>
<path d="M12438 10793 c-16 -4 -16 -6 2 -25 14 -15 23 -18 32 -11 7 6 42 14
78 19 55 6 61 9 35 15 -34 8 -121 9 -147 2z"/>
<path d="M14915 10750 c-3 -5 1 -10 9 -10 9 0 16 5 16 10 0 6 -4 10 -9 10 -6
0 -13 -4 -16 -10z"/>
<path d="M14867 10736 c-4 -10 0 -12 14 -9 22 6 26 23 5 23 -8 0 -16 -6 -19
-14z"/>
<path d="M14750 10711 c0 -6 4 -13 10 -16 6 -3 7 1 4 9 -7 18 -14 21 -14 7z"/>
<path d="M14870 10640 c0 -5 7 -10 16 -10 8 0 12 5 9 10 -3 6 -10 10 -16 10
-5 0 -9 -4 -9 -10z"/>
<path d="M14890 10596 c0 -9 7 -16 16 -16 17 0 14 22 -4 28 -7 2 -12 -3 -12
-12z"/>
<path d="M10705 10580 c-3 -11 -17 -23 -30 -26 -14 -3 -22 -11 -19 -19 3 -7
-2 -29 -10 -50 -9 -21 -16 -46 -16 -56 0 -9 -7 -24 -15 -33 -20 -20 -19 -25
10 -36 18 -7 25 -17 25 -35 0 -28 3 -30 29 -13 18 11 18 14 4 51 -12 30 -14
44 -5 57 13 22 4 34 -15 19 -10 -9 -13 -8 -13 4 0 9 6 20 14 24 8 4 16 17 19
28 3 13 5 9 6 -12 1 -33 14 -43 27 -22 9 15 12 139 3 139 -4 0 -11 -9 -14 -20z"/>
<path d="M11045 10590 c-8 -13 20 -24 41 -16 20 8 9 26 -16 26 -10 0 -22 -5
-25 -10z"/>
<path d="M11132 10571 c-22 -13 7 -29 63 -33 65 -4 73 11 15 28 -53 16 -61 16
-78 5z"/>
<path d="M15125 10560 c3 -5 15 -10 25 -10 10 0 22 5 25 10 4 6 -7 10 -25 10
-18 0 -29 -4 -25 -10z"/>
<path d="M11564 10536 c11 -9 24 -16 30 -16 12 0 7 5 -24 19 -24 11 -24 11 -6
-3z"/>
<path d="M14110 10541 c0 -27 122 -73 342 -130 336 -86 531 -118 863 -141 88
-6 180 -13 204 -16 26 -3 41 -2 37 4 -11 18 -102 34 -212 37 -102 3 -144 9
-230 36 -17 5 -82 18 -145 29 -63 12 -118 26 -124 33 -15 19 -72 40 -94 34
-11 -2 -55 4 -98 14 -68 17 -197 37 -273 44 -14 1 -41 10 -60 20 -60 31 -210
57 -210 36z"/>
<path d="M15557 10523 c-10 -10 -8 -83 2 -83 15 0 28 24 33 58 4 25 1 32 -12
32 -9 0 -20 -3 -23 -7z"/>
<path d="M15034 10499 c-3 -6 -1 -15 6 -19 15 -9 81 10 74 22 -8 12 -72 10
-80 -3z"/>
<path d="M12390 10489 c0 -5 5 -7 10 -4 6 3 10 8 10 11 0 2 -4 4 -10 4 -5 0
-10 -5 -10 -11z"/>
<path d="M11795 10462 c6 -5 21 -13 35 -17 17 -5 22 -4 15 3 -5 5 -21 13 -35
17 -17 5 -22 4 -15 -3z"/>
<path d="M11955 10430 c-3 -5 -2 -10 4 -10 5 0 13 5 16 10 3 6 2 10 -4 10 -5
0 -13 -4 -16 -10z"/>
<path d="M15028 10433 c7 -3 16 -2 19 1 4 3 -2 6 -13 5 -11 0 -14 -3 -6 -6z"/>
<path d="M12120 10274 c40 -19 90 -34 90 -29 0 9 -56 33 -90 39 l-35 7 35 -17z"/>
<path d="M11400 10239 c0 -5 9 -9 20 -9 11 0 20 2 20 4 0 2 -9 6 -20 9 -11 3
-20 1 -20 -4z"/>
<path d="M15204 10239 c11 -7 35 -15 53 -20 29 -6 34 -5 31 9 -2 13 -16 18
-53 20 -41 2 -47 0 -31 -9z"/>
<path d="M15350 10218 c0 -23 17 -40 36 -36 31 6 24 42 -8 46 -18 2 -28 -1
-28 -10z"/>
<path d="M15740 10196 c0 -9 7 -19 15 -23 25 -9 27 2 5 22 -18 17 -20 17 -20
1z"/>
<path d="M15238 10175 c-16 -35 4 -97 43 -129 42 -36 103 -53 124 -36 15 12
14 15 -12 28 -15 8 -36 21 -45 30 -19 16 -25 62 -8 62 6 0 10 7 10 15 0 8 -7
15 -15 15 -8 0 -19 9 -25 20 -16 29 -58 26 -72 -5z"/>
<path d="M15748 10143 c-10 -2 -18 -11 -18 -19 0 -16 16 -19 25 -4 3 6 15 10
26 10 10 0 19 5 19 10 0 10 -21 11 -52 3z"/>
<path d="M12550 10096 c0 -8 162 -57 168 -52 3 3 -1 7 -9 9 -8 3 -41 13 -74
23 -82 25 -85 26 -85 20z"/>
<path d="M15180 10041 c0 -6 4 -13 10 -16 6 -3 7 1 4 9 -7 18 -14 21 -14 7z"/>
<path d="M10967 10009 c-24 -14 -21 -26 7 -31 28 -6 42 14 23 31 -8 6 -18 6
-30 0z"/>
<path d="M11029 9999 c-10 -6 -11 -11 -3 -19 11 -11 44 -4 44 10 0 13 -26 19
-41 9z"/>
<path d="M12890 9970 c0 -9 25 -20 46 -20 9 0 13 4 10 9 -7 11 -56 21 -56 11z"/>
<path d="M15570 9965 c13 -16 60 -21 60 -6 0 9 -33 21 -59 21 -11 0 -11 -3 -1
-15z"/>
<path d="M15640 9842 c0 -5 8 -17 19 -26 17 -16 19 -16 25 0 8 20 8 19 -21 28
-13 4 -23 3 -23 -2z"/>
<path d="M15791 9777 c-113 -61 -114 -62 -77 -65 37 -3 38 -4 20 -23 -14 -15
-16 -24 -8 -37 17 -27 40 -25 58 3 16 25 16 28 1 45 -15 17 -15 19 7 26 44 13
130 95 116 110 -2 1 -54 -26 -117 -59z"/>
<path d="M11468 9773 c6 -2 18 -2 25 0 6 3 1 5 -13 5 -14 0 -19 -2 -12 -5z"/>
<path d="M13366 9745 c-4 -10 -20 -15 -50 -15 -25 0 -47 -4 -51 -10 -3 -5 -32
-14 -65 -21 -33 -6 -60 -15 -60 -18 0 -35 89 -43 111 -11 11 16 32 23 84 31
39 5 79 12 89 16 19 5 19 6 -3 24 -28 23 -47 24 -55 4z"/>
<path d="M12115 9730 c-3 -6 1 -13 10 -16 19 -8 30 0 20 15 -8 14 -22 14 -30
1z"/>
<path d="M13480 9730 c-11 -7 -3 -10 28 -10 26 0 41 4 37 10 -8 13 -45 13 -65
0z"/>
<path d="M12673 9723 c-20 -4 -21 -7 -12 -25 12 -22 94 -62 109 -53 17 11 11
35 -9 35 -11 0 -23 5 -26 10 -4 6 6 10 22 10 27 1 27 1 9 15 -19 15 -47 17
-93 8z"/>
<path d="M14041 9696 c10 -9 109 -14 109 -6 0 6 -25 10 -57 10 -31 0 -54 -2
-52 -4z"/>
<path d="M14268 9693 c7 -3 16 -2 19 1 4 3 -2 6 -13 5 -11 0 -14 -3 -6 -6z"/>
<path d="M14435 9690 c19 -8 143 -14 134 -6 -2 2 -38 6 -79 9 -46 4 -67 3 -55
-3z"/>
<path d="M11821 9664 c0 -11 3 -14 6 -6 3 7 2 16 -1 19 -3 4 -6 -2 -5 -13z"/>
<path d="M13678 9649 c12 -9 22 -22 22 -28 0 -6 4 -11 9 -11 5 0 9 11 9 24 0
19 -7 25 -31 29 l-31 4 22 -18z"/>
<path d="M12335 9650 c3 -5 11 -10 16 -10 6 0 7 5 4 10 -3 6 -11 10 -16 10 -6
0 -7 -4 -4 -10z"/>
<path d="M13735 9640 c3 -5 10 -10 16 -10 5 0 9 5 9 10 0 6 -7 10 -16 10 -8 0
-12 -4 -9 -10z"/>
<path d="M12475 9620 c10 -11 15 -28 12 -40 -5 -19 -2 -21 26 -14 18 3 35 8
40 11 13 8 -4 25 -20 19 -9 -4 -23 4 -35 19 -11 14 -24 25 -30 25 -6 0 -3 -9
7 -20z"/>
<path d="M12050 9620 c0 -14 38 -32 45 -21 3 6 -3 15 -14 20 -24 14 -31 14
-31 1z"/>
<path d="M11813 9610 c-32 -13 -28 -30 6 -30 25 0 61 21 61 36 0 7 -44 3 -67
-6z"/>
<path d="M11898 9613 c7 -3 16 -2 19 1 4 3 -2 6 -13 5 -11 0 -14 -3 -6 -6z"/>
<path d="M11630 9594 c0 -15 23 -44 34 -44 14 0 5 48 -10 54 -22 9 -24 8 -24
-10z"/>
<path d="M15632 9588 c-7 -7 -12 -21 -12 -31 0 -15 -5 -18 -21 -14 -12 3 -22
0 -26 -9 -6 -16 -34 -19 -49 -4 -5 5 -15 6 -24 0 -22 -14 -7 -21 49 -22 47 -1
55 2 89 35 21 20 44 37 52 37 13 0 13 2 0 10 -20 13 -44 12 -58 -2z"/>
<path d="M13285 9515 l-30 -13 48 -1 c46 -1 62 11 31 23 -9 3 -16 6 -17 6 -1
-1 -15 -7 -32 -15z"/>
<path d="M13410 9091 c0 -28 16 -57 49 -94 15 -15 36 -51 46 -79 27 -67 99
-139 182 -180 126 -62 268 -49 387 35 50 36 186 198 186 223 0 8 9 32 20 54
l20 38 -423 5 c-232 2 -432 7 -444 12 -19 6 -23 4 -23 -14z"/>
<path d="M2601 14394 c0 -11 3 -14 6 -6 3 7 2 16 -1 19 -3 4 -6 -2 -5 -13z"/>
<path d="M2502 13430 c0 -14 2 -19 5 -12 2 6 2 18 0 25 -3 6 -5 1 -5 -13z"/>
<path d="M2492 13235 c0 -16 2 -22 5 -12 2 9 2 23 0 30 -3 6 -5 -1 -5 -18z"/>
<path d="M3011 11994 c0 -11 3 -14 6 -6 3 7 2 16 -1 19 -3 4 -6 -2 -5 -13z"/>
<path d="M3005 11730 c-4 -6 -3 -16 3 -22 6 -6 12 -6 17 2 4 6 3 16 -3 22 -6
6 -12 6 -17 -2z"/>
<path d="M4100 7190 c6 -11 13 -20 16 -20 2 0 0 9 -6 20 -6 11 -13 20 -16 20
-2 0 0 -9 6 -20z"/>
<path d="M4160 7099 c0 -3 11 -20 25 -39 14 -19 25 -30 25 -24 -1 10 -50 73
-50 63z"/>
<path d="M4245 6970 c20 -37 189 -278 290 -415 984 -1328 2241 -2387 3694
-3114 90 -45 165 -80 168 -78 2 3 -42 28 -99 56 -112 56 -176 91 -281 153 -38
22 -110 61 -160 87 -51 27 -108 57 -127 68 -19 11 -62 35 -95 53 -56 31 -146
87 -385 242 -52 34 -150 101 -218 150 -68 48 -133 93 -145 100 -12 6 -65 43
-117 83 -52 39 -138 103 -190 142 -52 39 -108 84 -125 100 -16 15 -55 48 -85
73 -30 25 -61 51 -69 58 -7 7 -59 52 -115 100 -55 48 -121 105 -144 127 -24
22 -51 44 -60 49 -30 17 -86 70 -303 286 -119 118 -248 245 -287 282 -38 37
-136 142 -217 235 -81 92 -157 177 -169 188 -11 11 -41 45 -66 75 -25 30 -50
60 -56 66 -5 7 -39 48 -74 93 -36 44 -68 81 -72 81 -4 0 -8 6 -8 13 0 7 -13
28 -30 47 -65 77 -131 164 -145 190 -8 16 -21 33 -28 37 -7 4 -19 18 -27 29
-8 12 -66 93 -129 180 -110 153 -144 197 -126 164z"/>
<path d="M20780 6909 c0 -5 5 -7 10 -4 6 3 10 8 10 11 0 2 -4 4 -10 4 -5 0
-10 -5 -10 -11z"/>
<path d="M20350 6409 c0 -5 5 -7 10 -4 6 3 10 8 10 11 0 2 -4 4 -10 4 -5 0
-10 -5 -10 -11z"/>
<path d="M8411 3356 c2 -2 15 -9 29 -15 24 -11 24 -11 6 3 -16 13 -49 24 -35
12z"/>
<path d="M8513 3304 c27 -14 51 -23 54 -20 6 5 -81 47 -95 46 -4 -1 15 -12 41
-26z"/>
<path d="M8580 3276 c0 -4 248 -114 330 -146 30 -12 51 -17 45 -12 -5 5 -28
16 -50 24 -22 9 -66 28 -99 43 -62 28 -218 95 -223 95 -2 0 -3 -2 -3 -4z"/>
<path d="M10230 2690 c14 -4 32 -8 40 -9 13 -1 13 0 0 9 -8 5 -26 9 -40 9
l-25 -1 25 -8z"/>
<path d="M10335 2665 c59 -17 73 -19 60 -6 -6 5 -32 11 -60 14 l-50 6 50 -14z"/>
<path d="M10455 2634 c63 -17 81 -17 35 1 -19 7 -46 13 -60 13 -15 0 -5 -5 25
-14z"/>
<path d="M10588 2603 c6 -2 18 -2 25 0 6 3 1 5 -13 5 -14 0 -19 -2 -12 -5z"/>
<path d="M10650 2590 c14 -4 34 -8 45 -8 16 0 15 2 -5 8 -14 4 -34 8 -45 8
-16 0 -15 -2 5 -8z"/>
<path d="M10775 2564 c75 -16 93 -16 40 1 -22 8 -53 13 -70 13 -19 0 -8 -5 30
-14z"/>
<path d="M10900 2540 c122 -31 578 -96 910 -129 386 -39 531 -45 990 -45 438
0 728 13 960 44 57 8 53 8 -35 4 -595 -26 -1330 -28 -1660 -3 -379 28 -520 43
-680 71 -33 6 -98 14 -145 19 -47 5 -130 15 -185 24 -55 9 -120 18 -145 20
-43 4 -43 4 -10 -5z"/>
</g>
</svg>
