<?xml version="1.0" encoding="UTF-8"?>
<svg id="Layer_1" data-name="Layer 1" xmlns="http://www.w3.org/2000/svg" viewBox="0 0 408 246">
  <defs>
    <style>
      .cls-1 {
        fill: #e1e2e5;
      }

      .cls-2 {
        fill: #41494e;
      }
    </style>
  </defs>
  <rect class="cls-2" width="408" height="246" rx="28.36" ry="28.36"/>
  <g>
    <path class="cls-1" d="m204,82.1c-2.45,0-4.55.86-6.29,2.61-1.74,1.75-2.61,3.84-2.61,6.29,0,1.71.4,3.21,1.22,4.51.5.79,1.08,1.48,1.77,2.09.94.83,1.46,2.04,1.46,3.29v30.16c0,2.46,1.99,4.45,4.45,4.45s4.45-1.99,4.45-4.45v-30.1c0-1.28.55-2.49,1.51-3.33.67-.58,1.24-1.27,1.72-2.06.81-1.33,1.22-2.85,1.22-4.56,0-2.45-.86-4.55-2.61-6.29-1.75-1.74-3.84-2.61-6.29-2.61Z"/>
    <path class="cls-1" d="m244.99,73.63c-2.33-5.42-5.5-10.13-9.51-14.13s-8.71-7.18-14.13-9.51c-5.42-2.33-11.2-3.5-17.36-3.5s-11.94,1.17-17.36,3.5c-5.42,2.33-10.13,5.5-14.13,9.51s-7.18,8.71-9.51,14.13c-2.33,5.42-3.5,10.98-3.5,17.36s1.25,12.33,3.73,17.86c.47,1.04.98,2.04,1.5,3.03,1.47-2.97,3.13-5.8,5.46-8.28.12-.12.24-.22.36-.34-1.43-3.85-2.16-7.94-2.16-12.28,0-9.93,3.46-18.35,10.35-25.25,6.89-6.9,15.32-10.35,25.25-10.35s18.35,3.46,25.25,10.35c6.9,6.89,10.35,15.31,10.35,25.25,0,5.12-1,9.92-3,14.41-1.43,3.2-3.22,6.1-5.36,8.68-1.47,1.76-1.37,4.34.26,5.97h0c1.82,1.82,4.82,1.73,6.48-.23,2.73-3.22,4.99-6.86,6.8-10.9,2.49-5.56,3.73-11.75,3.73-17.91s-1.17-11.94-3.5-17.36Z"/>
    <path class="cls-1" d="m222.9,72.09c-5.19-5.19-11.5-7.79-18.91-7.79s-13.72,2.6-18.91,7.79c-5.19,5.19-7.79,11.49-7.79,18.91,0,2.59.34,5.05,1.02,7.4,2.34-.82,4.83-1.27,7.39-1.34.54-.02,1.07.03,1.59.11-.72-1.92-1.11-3.97-1.11-6.16,0-4.89,1.75-9.08,5.23-12.57,3.48-3.49,7.68-5.23,12.57-5.23s9.08,1.75,12.57,5.23c3.49,3.48,5.23,7.67,5.23,12.57,0,2.59-.54,5.04-1.61,7.34-.52,1.12-1.14,2.18-1.85,3.16-1.3,1.8-1.12,4.26.44,5.83,1.93,1.93,5.17,1.74,6.77-.46,1.08-1.48,2.02-3.1,2.82-4.86,1.56-3.41,2.34-7.08,2.34-11.01,0-7.41-2.6-13.72-7.79-18.91Z"/>
  </g>
  <g>
    <path class="cls-1" d="m203.99,82.1c2.45,0,4.55.86,6.29,2.61,1.74,1.75,2.61,3.84,2.61,6.29,0,1.71-.4,3.21-1.22,4.51-.5.79-1.08,1.48-1.77,2.09-.94.83-1.46,2.04-1.46,3.29v30.16c0,2.46-1.99,4.45-4.45,4.45s-4.45-1.99-4.45-4.45v-30.1c0-1.28-.55-2.49-1.51-3.33-.67-.58-1.24-1.27-1.72-2.06-.81-1.33-1.22-2.85-1.22-4.56,0-2.45.86-4.55,2.61-6.29,1.75-1.74,3.84-2.61,6.29-2.61Z"/>
    <path class="cls-1" d="m163,73.63c2.33-5.42,5.5-10.13,9.51-14.13s8.71-7.18,14.13-9.51c5.42-2.33,11.2-3.5,17.36-3.5s11.94,1.17,17.36,3.5c5.42,2.33,10.13,5.5,14.13,9.51s7.18,8.71,9.51,14.13c2.33,5.42,3.5,10.98,3.5,17.36s-1.25,12.33-3.73,17.86c-.47,1.04-.98,2.04-1.5,3.03-1.47-2.97-3.13-5.8-5.46-8.28-.12-.12-.24-.22-.36-.34,1.43-3.85,2.16-7.94,2.16-12.28,0-9.93-3.46-18.35-10.35-25.25-6.89-6.9-15.32-10.35-25.25-10.35s-18.35,3.46-25.25,10.35c-6.9,6.89-10.35,15.31-10.35,25.25,0,5.12,1,9.92,3,14.41,1.43,3.2,3.22,6.1,5.36,8.68,1.47,1.76,1.37,4.34-.26,5.97h0c-1.82,1.82-4.82,1.73-6.48-.23-2.73-3.22-4.99-6.86-6.8-10.9-2.49-5.56-3.73-11.75-3.73-17.91s1.17-11.94,3.5-17.36Z"/>
    <path class="cls-1" d="m185.09,72.09c5.19-5.19,11.5-7.79,18.91-7.79s13.72,2.6,18.91,7.79c5.19,5.19,7.79,11.49,7.79,18.91,0,2.59-.34,5.05-1.02,7.4-2.34-.82-4.83-1.27-7.39-1.34-.54-.02-1.07.03-1.59.11.72-1.92,1.11-3.97,1.11-6.16,0-4.89-1.75-9.08-5.23-12.57-3.48-3.49-7.68-5.23-12.57-5.23s-9.08,1.75-12.57,5.23c-3.49,3.48-5.23,7.67-5.23,12.57,0,2.59.54,5.04,1.61,7.34.52,1.12,1.14,2.18,1.85,3.16,1.3,1.8,1.12,4.26-.44,5.83-1.93,1.93-5.17,1.74-6.77-.46-1.08-1.48-2.02-3.1-2.82-4.86-1.56-3.41-2.34-7.08-2.34-11.01,0-7.41,2.6-13.72,7.79-18.91Z"/>
  </g>
  <g>
    <path class="cls-1" d="m85.51,180.17v-3.41h17.94v3.41h-6.95v19.07h-4.04v-19.07h-6.95Z"/>
    <path class="cls-1" d="m108.93,189.36v9.88h-3.97v-16.86h3.8v2.86h.2c.39-.94,1.01-1.69,1.86-2.25s1.91-.83,3.17-.83c1.16,0,2.18.25,3.05.75s1.54,1.22,2.02,2.16c.48.94.71,2.09.71,3.44v10.74h-3.97v-10.12c0-1.13-.29-2.01-.87-2.65s-1.39-.96-2.41-.96c-.7,0-1.31.15-1.85.46-.54.3-.96.74-1.26,1.31s-.46,1.26-.46,2.07h-.02Z"/>
    <path class="cls-1" d="m131.43,199.24v-2.94l7.8-7.65c.75-.75,1.37-1.42,1.87-2.01s.87-1.15,1.12-1.7.37-1.13.37-1.76c0-.71-.16-1.32-.48-1.83-.32-.51-.77-.9-1.33-1.18s-1.2-.42-1.92-.42-1.39.15-1.94.46-.99.73-1.29,1.29-.46,1.22-.46,1.99h-3.87c0-1.43.33-2.67.98-3.72s1.55-1.87,2.69-2.45c1.15-.58,2.46-.87,3.95-.87s2.83.28,3.97.85,2.03,1.34,2.66,2.32c.63.98.95,2.1.95,3.36,0,.84-.16,1.67-.48,2.48-.32.81-.89,1.71-1.7,2.7s-1.94,2.18-3.4,3.59l-3.88,3.94v.15h9.79v3.4h-15.41.01Z"/>
    <path class="cls-1" d="m157.55,180.17v-3.41h17.94v3.41h-6.95v19.07h-4.04v-19.07h-6.95Z"/>
    <path class="cls-1" d="m180.97,189.36v9.88h-3.97v-16.86h3.8v2.86h.2c.39-.94,1.01-1.69,1.86-2.25s1.91-.83,3.17-.83c1.16,0,2.18.25,3.05.75s1.54,1.22,2.02,2.16c.48.94.71,2.09.71,3.44v10.74h-3.97v-10.12c0-1.13-.29-2.01-.87-2.65s-1.39-.96-2.41-.96c-.7,0-1.31.15-1.85.46-.54.3-.96.74-1.26,1.31s-.46,1.26-.46,2.07h-.02Z"/>
    <path class="cls-1" d="m203.69,199.24v-22.48h8.43c1.73,0,3.18.32,4.35.97s2.06,1.53,2.67,2.65c.6,1.12.91,2.4.91,3.83s-.3,2.72-.91,3.84-1.5,2-2.69,2.64-2.65.96-4.38.96h-5.59v-3.35h5.04c1.01,0,1.84-.18,2.48-.53s1.12-.83,1.43-1.45.47-1.32.47-2.12-.16-1.5-.47-2.11-.79-1.08-1.44-1.42c-.65-.34-1.48-.51-2.5-.51h-3.73v19.08h-4.07,0Z"/>
    <path class="cls-1" d="m230.52,199.57c-1.65,0-3.07-.36-4.28-1.09s-2.14-1.74-2.8-3.04-.99-2.82-.99-4.57.33-3.27.99-4.58,1.6-2.33,2.8-3.05c1.21-.72,2.63-1.09,4.28-1.09s3.07.36,4.28,1.09c1.21.72,2.14,1.74,2.8,3.05s.99,2.84.99,4.58-.33,3.26-.99,4.57c-.66,1.3-1.6,2.32-2.8,3.04s-2.63,1.09-4.28,1.09Zm.02-3.18c.89,0,1.64-.25,2.24-.74s1.05-1.16,1.34-1.99c.3-.83.44-1.76.44-2.79s-.15-1.97-.44-2.8-.74-1.51-1.34-2c-.6-.5-1.35-.75-2.24-.75s-1.67.25-2.28.75c-.6.5-1.05,1.17-1.35,2s-.44,1.77-.44,2.8.15,1.95.44,2.79c.3.83.75,1.5,1.35,1.99s1.36.74,2.28.74Z"/>
    <path class="cls-1" d="m248.21,199.54c-1.32,0-2.51-.34-3.56-1.02-1.05-.68-1.87-1.67-2.48-2.96-.61-1.3-.91-2.87-.91-4.72s.31-3.46.93-4.75,1.45-2.27,2.51-2.93c1.05-.66,2.23-.99,3.52-.99.99,0,1.8.17,2.44.5s1.14.73,1.51,1.2c.37.46.66.9.87,1.31h.16v-8.41h3.98v22.48h-3.91v-2.66h-.24c-.21.41-.5.84-.89,1.3s-.9.85-1.54,1.17-1.44.48-2.4.48h.01Zm1.11-3.26c.84,0,1.56-.23,2.15-.69s1.04-1.1,1.35-1.92c.31-.82.46-1.77.46-2.87s-.15-2.04-.46-2.84-.75-1.43-1.34-1.88-1.31-.67-2.17-.67-1.62.23-2.22.69c-.59.46-1.04,1.1-1.34,1.91s-.45,1.74-.45,2.79.15,1.99.46,2.82.75,1.47,1.35,1.94,1.33.71,2.2.71h0Z"/>
    <path class="cls-1" d="m268.79,199.57c-1.68,0-3.13-.37-4.33-1.11-1.2-.74-2.13-1.76-2.78-3.07s-.97-2.81-.97-4.52.33-3.23.99-4.54,1.59-2.34,2.79-3.07,2.63-1.1,4.28-1.1c1.37,0,2.58.25,3.64.75s1.9,1.21,2.53,2.12c.63.91.99,1.97,1.08,3.19h-3.8c-.15-.81-.52-1.49-1.09-2.04-.57-.54-1.34-.82-2.3-.82-.81,0-1.53.22-2.14.65s-1.09,1.06-1.43,1.87-.51,1.79-.51,2.92.17,2.14.5,2.96c.34.82.81,1.46,1.42,1.9s1.33.66,2.16.66c.59,0,1.11-.11,1.58-.33s.85-.55,1.17-.97c.31-.42.53-.94.65-1.55h3.8c-.1,1.19-.45,2.25-1.05,3.17-.61.92-1.43,1.64-2.48,2.15-1.05.52-2.28.77-3.69.77h-.02Z"/>
    <path class="cls-1" d="m284.14,199.58c-1.07,0-2.03-.19-2.88-.58-.85-.38-1.53-.95-2.02-1.71-.49-.75-.74-1.68-.74-2.79,0-.95.18-1.74.53-2.36s.83-1.12,1.44-1.49c.61-.37,1.29-.66,2.06-.85.76-.19,1.56-.33,2.38-.42.99-.1,1.79-.2,2.4-.28s1.06-.22,1.34-.4.42-.46.42-.84v-.07c0-.83-.25-1.47-.74-1.92s-1.2-.68-2.12-.68c-.97,0-1.74.21-2.31.64s-.95.93-1.15,1.5l-3.71-.53c.29-1.02.78-1.88,1.45-2.57s1.5-1.21,2.47-1.56,2.05-.52,3.23-.52c.81,0,1.62.1,2.43.29.81.19,1.54.5,2.21.94.67.44,1.2,1.03,1.61,1.77s.61,1.68.61,2.8v11.28h-3.82v-2.32h-.13c-.24.47-.58.91-1.02,1.31-.44.41-.98.73-1.64.98s-1.42.37-2.3.37h0Zm1.03-2.92c.8,0,1.49-.16,2.07-.48s1.04-.74,1.36-1.27.48-1.1.48-1.72v-1.99c-.12.1-.33.2-.63.29s-.63.16-.99.23c-.37.07-.73.12-1.09.18s-.67.1-.93.13c-.59.08-1.12.21-1.59.4-.47.18-.84.44-1.11.76-.27.33-.41.74-.41,1.26,0,.73.27,1.28.8,1.66.53.37,1.21.56,2.04.56h0Z"/>
    <path class="cls-1" d="m310.37,186.84l-3.62.4c-.1-.37-.28-.71-.53-1.03-.25-.32-.59-.58-1.02-.78-.42-.2-.94-.3-1.56-.3-.83,0-1.52.18-2.08.54s-.84.82-.83,1.39c0,.49.17.89.54,1.2s.98.56,1.84.76l2.88.61c1.59.34,2.78.89,3.56,1.64s1.17,1.72,1.18,2.93c0,1.06-.32,2-.93,2.8-.61.81-1.46,1.44-2.54,1.89s-2.33.68-3.73.68c-2.06,0-3.72-.43-4.98-1.3-1.26-.87-2.01-2.08-2.25-3.63l3.87-.37c.18.76.55,1.34,1.12,1.72.57.39,1.31.58,2.23.58s1.7-.19,2.28-.58.86-.87.86-1.44c0-.48-.18-.88-.55-1.2-.37-.31-.94-.56-1.72-.72l-2.88-.6c-1.62-.34-2.81-.91-3.59-1.71s-1.16-1.82-1.15-3.05c0-1.04.28-1.94.85-2.71.57-.76,1.38-1.36,2.4-1.78,1.03-.42,2.21-.63,3.56-.63,1.98,0,3.53.42,4.67,1.26s1.84,1.98,2.11,3.41v.02Z"/>
    <path class="cls-1" d="m322.44,182.38v3.07h-9.69v-3.07h9.69Zm-7.3-4.04h3.97v15.83c0,.53.08.94.25,1.22.16.28.38.47.65.58.27.1.57.15.9.15.25,0,.48-.02.69-.06s.37-.07.48-.1l.67,3.11c-.21.07-.51.15-.91.24-.39.09-.87.14-1.43.15-1,.03-1.89-.12-2.69-.46s-1.43-.85-1.89-1.55-.69-1.58-.69-2.63v-16.49h0Z"/>
  </g>
</svg>
