<?xml version="1.0" encoding="UTF-8"?>
<svg id="Layer_1" data-name="Layer 1" xmlns="http://www.w3.org/2000/svg" viewBox="0 0 408 246">
  <defs>
    <style>
      .cls-1 {
        fill: #e1e2e5;
      }

      .cls-2 {
        fill: #41494e;
      }
    </style>
  </defs>
  <rect class="cls-2" width="408" height="246" rx="28.36" ry="28.36"/>
  <g>
    <path class="cls-1" d="m70.32,186.17c1.08,0,2.13.2,3.15.57,1.02.37,1.95.97,2.77,1.81.82.83,1.48,1.95,1.96,3.34.48,1.39.73,3.12.73,5.17,0,1.94-.2,3.67-.61,5.19s-1.01,2.81-1.78,3.86-1.7,1.85-2.79,2.4c-1.09.55-2.31.83-3.67.83s-2.68-.28-3.78-.84-1.98-1.32-2.66-2.29c-.68-.97-1.09-2.08-1.24-3.32h4.02c.21.9.63,1.61,1.26,2.13s1.44.79,2.41.79c1.56,0,2.77-.68,3.61-2.04.84-1.36,1.27-3.24,1.27-5.66h-.15c-.36.65-.83,1.2-1.4,1.67s-1.22.82-1.94,1.07-1.49.38-2.3.38c-1.32,0-2.51-.32-3.56-.95-1.05-.63-1.89-1.5-2.5-2.6s-.92-2.36-.93-3.78c0-1.47.34-2.79,1.02-3.96.68-1.17,1.63-2.1,2.85-2.77s2.64-1.01,4.27-1h0Zm.01,3.3c-.79,0-1.51.19-2.14.58-.64.39-1.13.91-1.5,1.56-.36.66-.54,1.39-.54,2.2s.19,1.53.54,2.18.84,1.17,1.46,1.55,1.33.57,2.13.57c.59,0,1.15-.11,1.66-.34s.96-.54,1.35-.95.69-.87.9-1.39c.22-.52.32-1.07.31-1.65,0-.77-.18-1.48-.54-2.14-.36-.65-.86-1.18-1.49-1.57-.63-.4-1.34-.59-2.15-.59h.01Z"/>
    <path class="cls-1" d="m90.92,209.45c-1.81,0-3.37-.46-4.66-1.38s-2.29-2.25-2.98-4c-.69-1.74-1.04-3.84-1.04-6.3s.36-4.55,1.05-6.28,1.69-3.05,2.98-3.96,2.85-1.37,4.65-1.37,3.36.46,4.66,1.37,2.3,2.23,2.99,3.96,1.04,3.82,1.04,6.27-.35,4.57-1.04,6.31-1.69,3.07-2.98,3.99c-1.3.92-2.85,1.38-4.66,1.38h0Zm0-3.45c1.41,0,2.52-.7,3.34-2.09s1.23-3.44,1.23-6.15c0-1.79-.19-3.29-.56-4.51-.37-1.22-.9-2.14-1.59-2.76s-1.49-.93-2.42-.93c-1.4,0-2.51.7-3.32,2.09s-1.23,3.43-1.23,6.12c0,1.8.17,3.31.54,4.54s.9,2.15,1.58,2.77c.68.62,1.49.93,2.43.93h0Z"/>
    <path class="cls-1" d="m123.43,192.67c-.1-.96-.53-1.71-1.29-2.25s-1.74-.8-2.96-.8c-.85,0-1.58.13-2.19.39s-1.08.61-1.4,1.05-.49.94-.5,1.51c0,.47.11.88.32,1.22.22.34.51.64.89.88.37.24.79.44,1.24.6s.91.3,1.38.41l2.11.53c.85.2,1.67.47,2.46.8.79.34,1.5.76,2.12,1.28s1.12,1.13,1.49,1.86c.37.73.55,1.58.55,2.55,0,1.32-.34,2.48-1.01,3.48s-1.65,1.78-2.92,2.34-2.81.84-4.62.84-3.27-.27-4.56-.81-2.29-1.33-3.02-2.38c-.72-1.04-1.11-2.31-1.17-3.81h4.02c.06.79.3,1.44.73,1.96s.98.91,1.67,1.17c.69.26,1.45.39,2.31.39s1.67-.13,2.34-.4c.67-.27,1.2-.64,1.58-1.12.38-.48.58-1.04.58-1.69,0-.59-.18-1.07-.52-1.46s-.81-.71-1.41-.97-1.31-.49-2.12-.7l-2.56-.66c-1.86-.48-3.32-1.2-4.4-2.17s-1.61-2.27-1.61-3.88c0-1.33.36-2.49,1.08-3.49s1.71-1.77,2.96-2.33,2.66-.83,4.24-.83,3,.28,4.21.83,2.16,1.32,2.85,2.3,1.05,2.1,1.07,3.37h-3.94Z"/>
    <path class="cls-1" d="m138.61,209.35c-1.7,0-3.16-.35-4.39-1.06-1.23-.71-2.17-1.71-2.83-3.02-.66-1.3-.99-2.84-.99-4.61s.33-3.27,1-4.58c.66-1.32,1.59-2.34,2.79-3.08s2.6-1.11,4.22-1.11c1.04,0,2.03.17,2.96.5.93.33,1.75.85,2.47,1.55s1.28,1.58,1.69,2.66.62,2.35.62,3.84v1.22h-13.86v-2.69h10.04c0-.76-.17-1.44-.5-2.04s-.77-1.07-1.35-1.42c-.58-.34-1.25-.52-2.01-.52-.81,0-1.53.2-2.15.59s-1.1.91-1.44,1.54-.52,1.33-.52,2.09v2.34c0,.98.18,1.83.54,2.53s.86,1.24,1.51,1.61,1.4.56,2.27.56c.58,0,1.1-.08,1.57-.25s.88-.41,1.22-.73c.34-.32.61-.72.78-1.2l3.72.42c-.23.98-.68,1.84-1.34,2.57s-1.5,1.29-2.52,1.7c-1.02.4-2.19.6-3.5.6h0Z"/>
    <path class="cls-1" d="m156.87,209.35c-1.69,0-3.14-.37-4.34-1.11-1.21-.74-2.14-1.77-2.79-3.08s-.97-2.82-.97-4.53.33-3.23.99-4.55,1.59-2.34,2.8-3.08,2.64-1.11,4.29-1.11c1.37,0,2.59.25,3.65.75s1.91,1.21,2.54,2.12c.63.91.99,1.98,1.08,3.2h-3.81c-.15-.81-.52-1.5-1.1-2.04s-1.35-.82-2.31-.82c-.81,0-1.53.22-2.15.66s-1.1,1.06-1.44,1.88-.51,1.79-.51,2.93.17,2.14.51,2.97.81,1.46,1.43,1.9,1.33.67,2.16.67c.59,0,1.11-.11,1.58-.34.47-.22.86-.55,1.17-.97.32-.42.53-.94.65-1.55h3.81c-.1,1.2-.45,2.25-1.06,3.18-.61.92-1.44,1.64-2.49,2.16s-2.28.78-3.7.78v-.02Z"/>
    <path class="cls-1" d="m174.77,209.35c-1.65,0-3.08-.36-4.29-1.09s-2.15-1.74-2.81-3.05-1-2.83-1-4.58.33-3.28,1-4.59c.66-1.31,1.6-2.33,2.81-3.06s2.64-1.09,4.29-1.09,3.08.36,4.29,1.09,2.15,1.75,2.81,3.06,1,2.84,1,4.59-.33,3.27-1,4.58c-.66,1.31-1.6,2.32-2.81,3.05s-2.64,1.09-4.29,1.09Zm.02-3.19c.9,0,1.64-.25,2.25-.74.6-.5,1.05-1.16,1.35-2s.45-1.77.45-2.8-.15-1.97-.45-2.81-.75-1.51-1.35-2.01-1.35-.75-2.25-.75-1.68.25-2.28.75c-.61.5-1.06,1.17-1.35,2.01-.3.84-.45,1.78-.45,2.81s.15,1.96.45,2.8.75,1.5,1.35,2,1.37.74,2.28.74Z"/>
    <path class="cls-1" d="m190.23,199.11v9.91h-3.99v-16.91h3.81v2.87h.2c.39-.95,1.01-1.7,1.87-2.26.85-.56,1.91-.84,3.18-.84,1.17,0,2.19.25,3.05.75.87.5,1.54,1.22,2.03,2.17.48.95.72,2.1.71,3.45v10.77h-3.98v-10.15c0-1.13-.29-2.01-.88-2.65-.58-.64-1.39-.96-2.42-.96-.7,0-1.32.15-1.85.46-.54.3-.96.74-1.27,1.32-.3.57-.46,1.27-.46,2.08h0Z"/>
    <path class="cls-1" d="m211.42,209.32c-1.33,0-2.52-.34-3.57-1.02-1.05-.68-1.88-1.67-2.49-2.97s-.91-2.88-.91-4.73.31-3.47.93-4.76c.62-1.3,1.46-2.28,2.52-2.94s2.23-1,3.53-1c.99,0,1.81.17,2.44.5s1.14.73,1.52,1.2c.37.47.66.91.87,1.32h.17v-8.43h4v22.55h-3.92v-2.66h-.24c-.21.41-.5.85-.89,1.3s-.9.85-1.54,1.17c-.64.32-1.44.48-2.41.48h0Zm1.11-3.27c.84,0,1.56-.23,2.16-.69s1.05-1.1,1.35-1.92c.31-.82.46-1.78.46-2.87s-.15-2.04-.46-2.85-.75-1.43-1.34-1.88c-.59-.45-1.32-.67-2.17-.67s-1.63.23-2.22.69-1.04,1.1-1.34,1.92-.45,1.75-.45,2.8.15,2,.46,2.82.76,1.48,1.35,1.95c.6.47,1.33.71,2.21.71h-.01Z"/>
    <path class="cls-1" d="m238.05,196.58l-3.63.4c-.1-.37-.28-.71-.53-1.04s-.59-.58-1.02-.78-.95-.3-1.56-.3c-.83,0-1.53.18-2.09.54s-.84.83-.83,1.4c0,.49.17.89.54,1.2s.99.56,1.84.76l2.88.62c1.6.34,2.79.89,3.57,1.64.78.75,1.18,1.73,1.18,2.94,0,1.06-.32,2-.93,2.81-.61.81-1.46,1.44-2.55,1.9-1.09.46-2.33.68-3.74.68-2.07,0-3.74-.43-5-1.3-1.26-.87-2.01-2.08-2.26-3.64l3.89-.38c.18.76.55,1.34,1.12,1.73.57.39,1.32.58,2.24.58s1.71-.19,2.28-.58c.58-.39.86-.87.86-1.44,0-.48-.19-.88-.56-1.2-.37-.32-.94-.56-1.72-.73l-2.88-.61c-1.62-.34-2.82-.91-3.6-1.71s-1.16-1.82-1.16-3.05c0-1.04.28-1.95.85-2.71.58-.77,1.38-1.36,2.41-1.78s2.22-.63,3.57-.63c1.98,0,3.54.42,4.68,1.27,1.14.84,1.85,1.99,2.12,3.42h.03Z"/>
    <path class="cls-1" d="m257.84,192.11v3.08h-9.72v-3.08h9.72Zm-7.32-4.05h3.98v15.87c0,.54.08.95.25,1.23s.38.48.66.58.57.15.9.15c.25,0,.48-.02.69-.06s.37-.07.48-.1l.67,3.12c-.21.07-.52.15-.91.24-.39.09-.87.14-1.44.15-1,.03-1.9-.12-2.7-.46-.8-.33-1.43-.85-1.9-1.56-.47-.71-.7-1.58-.69-2.64v-16.53h0Z"/>
    <path class="cls-1" d="m268.38,209.35c-1.65,0-3.08-.36-4.29-1.09s-2.15-1.74-2.81-3.05-1-2.83-1-4.58.33-3.28,1-4.59c.66-1.31,1.6-2.33,2.81-3.06s2.64-1.09,4.29-1.09,3.08.36,4.29,1.09,2.15,1.75,2.81,3.06,1,2.84,1,4.59-.33,3.27-1,4.58c-.66,1.31-1.6,2.32-2.81,3.05s-2.64,1.09-4.29,1.09Zm.02-3.19c.9,0,1.64-.25,2.25-.74.6-.5,1.05-1.16,1.35-2,.3-.84.45-1.77.45-2.8s-.15-1.97-.45-2.81c-.3-.84-.75-1.51-1.35-2.01s-1.35-.75-2.25-.75-1.68.25-2.28.75c-.61.5-1.06,1.17-1.35,2.01-.3.84-.45,1.78-.45,2.81s.15,1.96.45,2.8c.3.84.75,1.5,1.35,2s1.37.74,2.28.74Z"/>
    <path class="cls-1" d="m302.64,209.02h-4.24v-7.57c0-1.97-.49-3.33-1.46-4.08s-2.44-1.13-4.4-1.13c-1.46,0-3.06.13-4.78.38l-.3-3.41c1.64-.29,3.59-.44,5.83-.44,2.43,0,4.31.35,5.65,1.05s2.28,1.58,2.85,2.63.86,2.51.86,4.37v8.19h-.01Zm-10.75-8.34v8.34h-4.25v-8.34h4.25Z"/>
    <path class="cls-1" d="m318.81,209.02h-4.24v-7.9c0-1.72-.43-2.94-1.28-3.68-.85-.74-2.21-1.1-4.06-1.1-.95,0-2.21.1-3.77.29l-.32-3.35c1.45-.33,3.13-.5,5.03-.5,2.88,0,5.04.6,6.48,1.8s2.16,3.12,2.16,5.77v8.67h0Z"/>
    <path class="cls-1" d="m327.12,192.96v16.06h-4.38v-16.06h4.38Z"/>
    <path class="cls-1" d="m330.5,205.83c.62.2,1.17.3,1.65.3.61,0,1-.15,1.2-.45.19-.3.29-.86.29-1.69v-7.69c-.71,0-1.78.09-3.22.26l-.33-3.29c2.6-.33,5.31-.5,8.11-.5,2.37,0,4.25.21,5.63.62s2.42,1.17,3.13,2.27c.7,1.1,1.05,2.66,1.05,4.68v8.67h-4.25v-7.9c0-2.04-.34-3.38-1.01-4.01-.68-.64-2.29-.95-4.84-.95v8.04c0,1.36-.1,2.34-.31,2.93s-.63,1.07-1.28,1.45c-.65.38-1.56.57-2.75.57-1.29,0-2.52-.19-3.69-.56l.65-2.75h-.03Z"/>
  </g>
  <path class="cls-1" d="m204.45,103.4c-3.96,0-7.33-1.39-10.1-4.16s-4.16-6.14-4.16-10.1v-28.53c0-3.96,1.39-7.33,4.16-10.1s6.14-4.16,10.1-4.16,7.33,1.39,10.1,4.16,4.16,6.14,4.16,10.1v28.53c0,3.96-1.39,7.33-4.16,10.1s-6.14,4.16-10.1,4.16Zm-4.75,28.57v-6c0-2.17-1.48-4.06-3.59-4.57-6.65-1.6-12.26-5.06-16.85-10.39-4.19-4.86-6.75-10.35-7.68-16.45-.44-2.85,1.79-5.42,4.67-5.42h.08c2.36,0,4.3,1.76,4.67,4.09.78,4.84,2.99,9.08,6.63,12.72,4.64,4.64,10.24,6.95,16.82,6.95s12.18-2.32,16.82-6.95c3.64-3.64,5.85-7.88,6.63-12.72.38-2.33,2.31-4.09,4.67-4.09h.08c2.88,0,5.11,2.57,4.67,5.42-.93,6.11-3.49,11.59-7.68,16.45-4.58,5.33-10.2,8.79-16.85,10.39-2.11.51-3.59,2.4-3.59,4.57v6c0,2.6-2.11,4.72-4.72,4.72h-.08c-2.6,0-4.72-2.11-4.72-4.72Zm4.75-38.07c1.35,0,2.48-.46,3.39-1.37.91-.91,1.37-2.04,1.37-3.39v-28.53c0-1.35-.46-2.48-1.37-3.39-.91-.91-2.04-1.37-3.39-1.37s-2.48.46-3.39,1.37-1.37,2.04-1.37,3.39v28.53c0,1.35.46,2.48,1.37,3.39s2.04,1.37,3.39,1.37Z"/>
</svg>