<?xml version="1.0" encoding="UTF-8"?>
<svg id="Layer_1" data-name="Layer 1" xmlns="http://www.w3.org/2000/svg" viewBox="0 0 408 246">
  <defs>
    <style>
      .cls-1 {
        fill: #e1e2e5;
      }

      .cls-2 {
        fill: #41494e;
      }

      .cls-3 {
        fill: none;
      }
    </style>
  </defs>
  <rect class="cls-2" width="408" height="246" rx="28.36" ry="28.36"/>
  <path class="cls-1" d="m256,52.34c-2.16-2.17-4.76-3.25-7.8-3.25h-88.41c-3.03,0-5.63,1.09-7.8,3.25s-3.25,4.76-3.25,7.8v66.31c0,3.03,1.09,5.63,3.25,7.8s4.76,3.25,7.8,3.25h88.41c3.03,0,5.63-1.09,7.8-3.25,2.17-2.16,3.25-4.76,3.25-7.8V60.14c0-3.03-1.09-5.63-3.25-7.8Zm-7.8,69.12c0,2.75-2.23,4.98-4.98,4.98h-78.44c-2.75,0-4.98-2.23-4.98-4.98v-56.34c0-2.75,2.23-4.98,4.98-4.98h78.44c2.75,0,4.98,2.23,4.98,4.98v56.34Z"/>
  <g>
    <path class="cls-1" d="m64.11,176.69c1.08,0,2.13.2,3.15.57,1.02.37,1.95.97,2.77,1.81.82.83,1.48,1.95,1.96,3.34.48,1.39.73,3.12.73,5.17,0,1.94-.2,3.67-.61,5.19-.41,1.52-1.01,2.81-1.78,3.86s-1.7,1.85-2.79,2.4c-1.09.55-2.31.83-3.67.83-1.42,0-2.68-.28-3.78-.84s-1.98-1.32-2.66-2.29c-.68-.97-1.09-2.08-1.24-3.32h4.02c.21.9.63,1.61,1.26,2.13s1.44.79,2.41.79c1.56,0,2.77-.68,3.61-2.04.84-1.36,1.27-3.24,1.27-5.66h-.15c-.36.65-.83,1.2-1.4,1.67-.57.47-1.22.82-1.94,1.07-.72.25-1.49.38-2.3.38-1.32,0-2.51-.32-3.56-.95-1.05-.63-1.89-1.5-2.5-2.6s-.92-2.36-.93-3.78c0-1.47.34-2.79,1.02-3.96.68-1.17,1.63-2.1,2.85-2.77s2.64-1.01,4.27-1Zm.01,3.3c-.79,0-1.51.19-2.14.58-.64.39-1.13.91-1.5,1.56-.36.66-.54,1.39-.54,2.2,0,.8.19,1.53.54,2.18s.84,1.17,1.46,1.55c.62.38,1.33.57,2.13.57.59,0,1.15-.11,1.66-.34s.96-.54,1.35-.95.69-.87.9-1.39c.22-.52.32-1.07.31-1.65,0-.77-.18-1.48-.54-2.14-.36-.65-.86-1.18-1.49-1.57-.63-.4-1.34-.59-2.15-.59Z"/>
    <path class="cls-1" d="m84.71,199.97c-1.81,0-3.37-.46-4.66-1.38s-2.29-2.25-2.98-4c-.69-1.74-1.04-3.84-1.04-6.3,0-2.46.36-4.55,1.05-6.28s1.69-3.05,2.98-3.96c1.29-.91,2.85-1.37,4.65-1.37s3.36.46,4.66,1.37,2.3,2.23,2.99,3.96,1.04,3.82,1.04,6.27-.35,4.57-1.04,6.31-1.69,3.07-2.98,3.99c-1.3.92-2.85,1.38-4.66,1.38Zm0-3.45c1.41,0,2.52-.7,3.34-2.09.82-1.39,1.23-3.44,1.23-6.15,0-1.79-.19-3.29-.56-4.51-.37-1.22-.9-2.14-1.59-2.76s-1.49-.93-2.42-.93c-1.4,0-2.51.7-3.32,2.09-.81,1.39-1.23,3.43-1.23,6.12,0,1.8.17,3.31.54,4.54s.9,2.15,1.58,2.77c.68.62,1.49.93,2.43.93Z"/>
    <path class="cls-1" d="m117.21,183.19c-.1-.96-.53-1.71-1.29-2.25-.76-.54-1.74-.8-2.96-.8-.85,0-1.58.13-2.19.39s-1.08.61-1.4,1.05c-.32.44-.49.94-.5,1.51,0,.47.11.88.32,1.22.22.34.51.64.89.88.37.24.79.44,1.24.6s.91.3,1.38.41l2.11.53c.85.2,1.67.47,2.46.8.79.34,1.5.76,2.12,1.28s1.12,1.13,1.49,1.86c.37.73.55,1.58.55,2.55,0,1.32-.34,2.48-1.01,3.48s-1.65,1.78-2.92,2.34-2.81.84-4.62.84-3.27-.27-4.56-.81c-1.29-.54-2.29-1.33-3.02-2.38-.72-1.04-1.11-2.31-1.17-3.81h4.02c.06.79.3,1.44.73,1.96.43.52.98.91,1.67,1.17.69.26,1.45.39,2.31.39s1.67-.13,2.34-.4c.67-.27,1.2-.64,1.58-1.12.38-.48.58-1.04.58-1.69,0-.59-.18-1.07-.52-1.46-.34-.39-.81-.71-1.41-.97s-1.31-.49-2.12-.7l-2.56-.66c-1.86-.48-3.32-1.2-4.4-2.17s-1.61-2.27-1.61-3.88c0-1.33.36-2.49,1.08-3.49.72-1,1.71-1.77,2.96-2.33s2.66-.83,4.24-.83,3,.28,4.21.83c1.21.55,2.16,1.32,2.85,2.3s1.05,2.1,1.07,3.37h-3.93Z"/>
    <path class="cls-1" d="m132.4,199.87c-1.7,0-3.16-.35-4.39-1.06-1.23-.71-2.17-1.71-2.83-3.02-.66-1.3-.99-2.84-.99-4.61s.33-3.27,1-4.58c.66-1.32,1.59-2.34,2.79-3.08,1.2-.74,2.6-1.11,4.22-1.11,1.04,0,2.03.17,2.96.5.93.33,1.75.85,2.47,1.55.72.7,1.28,1.58,1.69,2.66s.62,2.35.62,3.84v1.22h-13.86v-2.69h10.04c0-.76-.17-1.44-.5-2.04s-.77-1.07-1.35-1.42c-.58-.34-1.25-.52-2.01-.52-.81,0-1.53.2-2.15.59-.62.39-1.1.91-1.44,1.54s-.52,1.33-.52,2.09v2.34c0,.98.18,1.83.54,2.53.36.7.86,1.24,1.51,1.61.65.37,1.4.56,2.27.56.58,0,1.1-.08,1.57-.25s.88-.41,1.22-.73c.34-.32.61-.72.78-1.2l3.72.42c-.23.98-.68,1.84-1.34,2.57s-1.5,1.29-2.52,1.7c-1.02.4-2.19.6-3.5.6Z"/>
    <path class="cls-1" d="m150.66,199.87c-1.69,0-3.14-.37-4.34-1.11-1.21-.74-2.14-1.77-2.79-3.08-.65-1.31-.97-2.82-.97-4.53s.33-3.23.99-4.55c.66-1.32,1.59-2.34,2.8-3.08,1.21-.74,2.64-1.11,4.29-1.11,1.37,0,2.59.25,3.65.75,1.06.5,1.91,1.21,2.54,2.12.63.91.99,1.98,1.08,3.2h-3.81c-.15-.81-.52-1.5-1.1-2.04s-1.35-.82-2.31-.82c-.81,0-1.53.22-2.15.66-.62.44-1.1,1.06-1.44,1.88s-.51,1.79-.51,2.93.17,2.14.51,2.97c.34.83.81,1.46,1.43,1.9s1.33.67,2.16.67c.59,0,1.11-.11,1.58-.34.47-.22.86-.55,1.17-.97.32-.42.53-.94.65-1.55h3.81c-.1,1.2-.45,2.25-1.06,3.18-.61.92-1.44,1.64-2.49,2.16-1.05.52-2.28.78-3.7.78Z"/>
    <path class="cls-1" d="m168.56,199.87c-1.65,0-3.08-.36-4.29-1.09s-2.15-1.74-2.81-3.05c-.66-1.31-1-2.83-1-4.58s.33-3.28,1-4.59c.66-1.31,1.6-2.33,2.81-3.06s2.64-1.09,4.29-1.09,3.08.36,4.29,1.09,2.15,1.75,2.81,3.06c.66,1.31,1,2.84,1,4.59s-.33,3.27-1,4.58c-.66,1.31-1.6,2.32-2.81,3.05s-2.64,1.09-4.29,1.09Zm.02-3.19c.9,0,1.64-.25,2.25-.74.6-.5,1.05-1.16,1.35-2s.45-1.77.45-2.8-.15-1.97-.45-2.81c-.3-.84-.75-1.51-1.35-2.01-.6-.5-1.35-.75-2.25-.75s-1.68.25-2.28.75c-.61.5-1.06,1.17-1.35,2.01-.3.84-.45,1.78-.45,2.81s.15,1.96.45,2.8c.3.84.75,1.5,1.35,2s1.37.74,2.28.74Z"/>
    <path class="cls-1" d="m184.01,189.63v9.91h-3.99v-16.91h3.81v2.87h.2c.39-.95,1.01-1.7,1.87-2.26.85-.56,1.91-.84,3.18-.84,1.17,0,2.19.25,3.05.75s1.54,1.22,2.03,2.17c.48.95.72,2.1.71,3.45v10.77h-3.99v-10.15c0-1.13-.29-2.01-.88-2.65s-1.39-.96-2.42-.96c-.7,0-1.32.15-1.85.46-.54.3-.96.74-1.27,1.32-.3.57-.46,1.27-.46,2.08Z"/>
    <path class="cls-1" d="m205.21,199.84c-1.33,0-2.52-.34-3.57-1.02-1.05-.68-1.88-1.67-2.49-2.97-.61-1.3-.91-2.88-.91-4.73s.31-3.47.93-4.76c.62-1.3,1.46-2.28,2.52-2.94,1.06-.66,2.23-1,3.53-1,.99,0,1.81.17,2.44.5s1.14.73,1.52,1.2c.38.47.66.91.87,1.32h.17v-8.43h4v22.55h-3.92v-2.66h-.24c-.21.41-.5.85-.89,1.3-.39.46-.9.85-1.54,1.17-.64.32-1.44.48-2.41.48Zm1.11-3.27c.84,0,1.56-.23,2.16-.69s1.05-1.1,1.35-1.92c.31-.82.46-1.78.46-2.87s-.15-2.04-.46-2.85-.75-1.43-1.34-1.88c-.59-.45-1.32-.67-2.17-.67s-1.63.23-2.22.69c-.59.46-1.04,1.1-1.34,1.92-.3.81-.45,1.75-.45,2.8s.15,2,.46,2.82.76,1.48,1.35,1.95c.6.47,1.33.71,2.21.71Z"/>
    <path class="cls-1" d="m231.84,187.1l-3.63.4c-.1-.37-.28-.71-.53-1.04s-.59-.58-1.02-.78-.95-.3-1.56-.3c-.83,0-1.52.18-2.09.54s-.84.83-.83,1.4c0,.49.17.89.54,1.2.37.31.99.56,1.84.76l2.88.62c1.6.34,2.79.89,3.57,1.64.78.75,1.18,1.73,1.18,2.94,0,1.06-.32,2-.93,2.81-.61.81-1.46,1.44-2.55,1.9-1.09.46-2.33.68-3.74.68-2.07,0-3.74-.43-5-1.3-1.26-.87-2.01-2.08-2.26-3.64l3.89-.38c.18.76.55,1.34,1.12,1.73.57.39,1.32.58,2.23.58s1.71-.19,2.28-.58c.58-.39.86-.87.86-1.44,0-.48-.18-.88-.56-1.2-.37-.32-.95-.56-1.72-.73l-2.88-.61c-1.62-.34-2.82-.91-3.6-1.71-.78-.8-1.16-1.82-1.16-3.05,0-1.04.28-1.95.85-2.71s1.38-1.36,2.41-1.78,2.22-.63,3.57-.63c1.98,0,3.54.42,4.68,1.27,1.14.84,1.85,1.99,2.12,3.42Z"/>
    <path class="cls-1" d="m243.14,199.54v-2.95l7.83-7.67c.75-.76,1.37-1.43,1.87-2.01s.87-1.16,1.12-1.71c.25-.55.37-1.14.37-1.76,0-.71-.16-1.32-.48-1.83-.32-.51-.77-.9-1.33-1.18-.57-.28-1.21-.42-1.93-.42s-1.39.15-1.95.46-.99.74-1.29,1.29c-.3.56-.46,1.22-.46,1.99h-3.89c0-1.43.33-2.68.98-3.73s1.55-1.88,2.7-2.46c1.15-.58,2.47-.87,3.96-.87s2.84.28,3.99.85c1.14.57,2.03,1.34,2.67,2.32.63.98.95,2.11.95,3.37,0,.84-.16,1.67-.48,2.49-.32.82-.89,1.72-1.7,2.71-.81.99-1.95,2.19-3.41,3.6l-3.89,3.95v.15h9.82v3.41h-15.46Z"/>
    <path class="cls-1" d="m269.33,180.42v-3.42h17.99v3.42h-6.97v19.12h-4.05v-19.12h-6.97Z"/>
    <path class="cls-1" d="m295.51,199.87c-1.65,0-3.08-.36-4.29-1.09s-2.15-1.74-2.81-3.05c-.67-1.31-1-2.83-1-4.58s.33-3.28,1-4.59c.66-1.31,1.6-2.33,2.81-3.06s2.64-1.09,4.29-1.09,3.08.36,4.29,1.09,2.15,1.75,2.81,3.06c.66,1.31,1,2.84,1,4.59s-.33,3.27-1,4.58c-.66,1.31-1.6,2.32-2.81,3.05s-2.64,1.09-4.29,1.09Zm.02-3.19c.9,0,1.64-.25,2.25-.74.6-.5,1.05-1.16,1.35-2,.3-.84.45-1.77.45-2.8s-.15-1.97-.45-2.81c-.3-.84-.75-1.51-1.35-2.01-.6-.5-1.35-.75-2.25-.75s-1.68.25-2.28.75c-.61.5-1.06,1.17-1.35,2.01-.3.84-.45,1.78-.45,2.81s.15,1.96.45,2.8.75,1.5,1.35,2,1.37.74,2.28.74Z"/>
    <path class="cls-1" d="m306.98,199.54v-16.91h3.86v2.82h.18c.31-.98.84-1.73,1.59-2.26.75-.53,1.61-.8,2.58-.8.22,0,.47,0,.74.03.28.02.5.05.69.08v3.67c-.17-.06-.43-.11-.8-.16s-.71-.07-1.05-.07c-.73,0-1.38.16-1.95.47-.58.31-1.03.74-1.36,1.29-.33.55-.5,1.18-.5,1.9v9.94h-3.99Z"/>
    <path class="cls-1" d="m323.82,199.88c-1.07,0-2.03-.19-2.89-.58-.85-.39-1.53-.96-2.03-1.71s-.74-1.69-.74-2.8c0-.95.18-1.74.53-2.37s.83-1.12,1.44-1.5c.61-.38,1.3-.66,2.06-.85.77-.19,1.56-.34,2.38-.42.99-.1,1.79-.2,2.41-.28.62-.08,1.07-.22,1.35-.4.28-.18.42-.46.42-.84v-.07c0-.83-.25-1.47-.74-1.93-.49-.46-1.2-.68-2.12-.68-.98,0-1.75.21-2.32.64-.57.43-.95.93-1.15,1.51l-3.72-.53c.29-1.03.78-1.89,1.45-2.58.67-.69,1.5-1.21,2.48-1.56s2.05-.52,3.24-.52c.81,0,1.63.09,2.43.29.81.19,1.54.5,2.21.94s1.21,1.03,1.61,1.78c.41.75.61,1.68.61,2.81v11.32h-3.83v-2.32h-.13c-.24.47-.58.91-1.02,1.32-.44.41-.98.73-1.64.98-.66.25-1.43.37-2.31.37Zm1.04-2.93c.8,0,1.49-.16,2.08-.48.59-.32,1.04-.74,1.36-1.27.32-.53.48-1.1.48-1.73v-1.99c-.12.1-.34.2-.63.29-.3.09-.63.17-1,.23-.37.07-.73.12-1.09.18-.36.05-.67.09-.94.13-.59.08-1.13.21-1.6.4s-.84.44-1.11.76c-.27.33-.41.75-.41,1.26,0,.73.27,1.29.8,1.66.54.37,1.22.56,2.05.56Z"/>
    <path class="cls-1" d="m340.75,189.63v9.91h-3.98v-22.55h3.9v8.51h.2c.4-.95,1.01-1.71,1.84-2.26.83-.55,1.9-.83,3.19-.83,1.17,0,2.2.25,3.07.74.87.49,1.55,1.21,2.03,2.16.48.95.72,2.1.72,3.47v10.77h-3.99v-10.15c0-1.14-.29-2.02-.88-2.66-.58-.63-1.4-.95-2.45-.95-.7,0-1.33.15-1.89.46-.55.3-.99.74-1.3,1.32-.31.57-.47,1.27-.47,2.08Z"/>
  </g>
  <line class="cls-3" x1="190.18" y1="118.16" x2="228.86" y2="93.3"/>
  <path class="cls-1" d="m225.46,91.2c1.6,1.03,1.6,3.36,0,4.39l-15.94,10.28-15.31,9.88c-1.74,1.12-4.03-.13-4.03-2.2v-40.32c0-2.07,2.29-3.32,4.03-2.2l15.31,9.88,15.94,10.28h0Z"/>
</svg>
