<?xml version="1.0" encoding="UTF-8"?>
<svg id="Layer_1" data-name="Layer 1" xmlns="http://www.w3.org/2000/svg" viewBox="0 0 408 246">
  <defs>
    <style>
      .cls-1 {
        fill: #e1e2e5;
      }

      .cls-2 {
        fill: #41494e;
      }
    </style>
  </defs>
  <rect class="cls-2" x="-.4" y="-.5" width="408" height="246" rx="28.36" ry="28.36"/>
  <path class="cls-1" d="m189.78,117.66l38.68-24.86-38.68-24.86v49.73Zm-30.39,19.34c-3.04,0-5.64-1.08-7.8-3.25s-3.25-4.77-3.25-7.8V59.64c0-3.04,1.08-5.64,3.25-7.8s4.77-3.25,7.8-3.25h88.41c3.04,0,5.64,1.08,7.8,3.25s3.25,4.77,3.25,7.8v66.31c0,3.04-1.08,5.64-3.25,7.8s-4.77,3.25-7.8,3.25h-88.41Zm0-11.05h88.41V59.64h-88.41v66.31Zm0,0V59.64v66.31Z"/>
  <g>
    <path class="cls-1" d="m102.72,179.67v-3.41h17.94v3.41h-6.95v19.07h-4.04v-19.07h-6.95Z"/>
    <path class="cls-1" d="m126.14,188.86v9.88h-3.97v-16.86h3.8v2.86h.2c.39-.94,1.01-1.69,1.86-2.25.85-.56,1.91-.83,3.17-.83,1.16,0,2.18.25,3.05.75s1.54,1.22,2.02,2.16.71,2.09.71,3.44v10.74h-3.97v-10.12c0-1.13-.29-2.01-.87-2.65-.58-.64-1.39-.96-2.41-.96-.7,0-1.31.15-1.85.46-.54.3-.96.74-1.26,1.31s-.46,1.26-.46,2.07Z"/>
    <path class="cls-1" d="m148.64,198.74v-2.94l7.8-7.65c.75-.75,1.37-1.42,1.87-2.01.5-.59.87-1.15,1.12-1.7.25-.55.37-1.13.37-1.76,0-.71-.16-1.32-.48-1.83-.32-.51-.76-.9-1.33-1.18-.56-.28-1.2-.42-1.92-.42s-1.39.15-1.94.46c-.56.3-.99.73-1.29,1.29s-.46,1.22-.46,1.99h-3.87c0-1.43.33-2.67.98-3.72s1.55-1.87,2.69-2.45c1.15-.58,2.46-.87,3.95-.87s2.83.28,3.97.85,2.03,1.34,2.66,2.32c.63.98.95,2.1.95,3.36,0,.84-.16,1.67-.48,2.48-.32.81-.89,1.71-1.7,2.7s-1.94,2.18-3.4,3.59l-3.88,3.94v.15h9.79v3.4h-15.41Z"/>
    <path class="cls-1" d="m174.76,179.67v-3.41h17.94v3.41h-6.95v19.07h-4.04v-19.07h-6.95Z"/>
    <path class="cls-1" d="m198.18,188.86v9.88h-3.97v-16.86h3.8v2.86h.2c.39-.94,1.01-1.69,1.86-2.25.85-.56,1.91-.83,3.17-.83,1.16,0,2.18.25,3.05.75s1.54,1.22,2.02,2.16c.48.94.71,2.09.71,3.44v10.74h-3.97v-10.12c0-1.13-.29-2.01-.87-2.65-.58-.64-1.38-.96-2.41-.96-.7,0-1.31.15-1.85.46s-.96.74-1.26,1.31-.46,1.26-.46,2.07Z"/>
    <path class="cls-1" d="m223.91,176.26l5.85,17.69h.23l5.84-17.69h4.48l-7.92,22.48h-5.03l-7.91-22.48h4.47Z"/>
    <path class="cls-1" d="m245.09,179.49c-.63,0-1.17-.21-1.62-.63-.45-.42-.68-.93-.68-1.52s.23-1.11.68-1.53c.45-.42,1-.63,1.62-.63s1.18.21,1.63.63.68.93.68,1.53-.23,1.1-.68,1.52c-.45.42-.99.63-1.63.63Zm-2,19.25v-16.86h3.97v16.86h-3.97Z"/>
    <path class="cls-1" d="m257.41,199.04c-1.32,0-2.51-.34-3.56-1.02-1.05-.68-1.87-1.67-2.48-2.96-.61-1.3-.91-2.87-.91-4.72s.31-3.46.93-4.75,1.45-2.27,2.51-2.93c1.05-.66,2.23-.99,3.52-.99.99,0,1.8.17,2.44.5s1.14.73,1.51,1.2c.37.46.66.9.87,1.31h.16v-8.41h3.99v22.48h-3.91v-2.66h-.24c-.21.41-.5.84-.89,1.3-.39.46-.9.85-1.54,1.17s-1.44.48-2.4.48Zm1.11-3.26c.84,0,1.56-.23,2.15-.69.59-.46,1.04-1.1,1.35-1.92.31-.82.46-1.77.46-2.87s-.15-2.04-.46-2.84-.75-1.43-1.34-1.88-1.31-.67-2.17-.67-1.62.23-2.22.69-1.04,1.1-1.34,1.91c-.3.81-.45,1.74-.45,2.79s.15,1.99.46,2.82.75,1.47,1.35,1.94c.6.47,1.33.71,2.2.71Z"/>
    <path class="cls-1" d="m278.1,199.07c-1.69,0-3.15-.35-4.38-1.06-1.23-.71-2.17-1.71-2.83-3.01-.66-1.3-.99-2.83-.99-4.59s.33-3.26.99-4.57,1.59-2.34,2.78-3.07,2.59-1.1,4.2-1.1c1.04,0,2.02.17,2.95.5s1.75.85,2.46,1.54c.71.7,1.27,1.58,1.68,2.65.41,1.07.62,2.35.62,3.83v1.22h-13.82v-2.68h10.01c0-.76-.17-1.44-.49-2.04-.32-.6-.77-1.07-1.34-1.41-.58-.34-1.24-.52-2-.52-.81,0-1.53.2-2.14.59-.61.39-1.09.9-1.43,1.54-.34.63-.51,1.33-.52,2.08v2.34c0,.98.18,1.82.54,2.52.36.7.86,1.23,1.5,1.6.64.37,1.4.55,2.26.55.58,0,1.1-.08,1.57-.25.47-.16.88-.41,1.22-.73.34-.32.6-.72.78-1.2l3.71.42c-.23.98-.68,1.83-1.33,2.56-.65.73-1.49,1.29-2.51,1.69-1.02.4-2.18.6-3.49.6Z"/>
    <path class="cls-1" d="m296.31,199.07c-1.65,0-3.07-.36-4.28-1.09-1.21-.72-2.14-1.74-2.8-3.04s-.99-2.82-.99-4.57.33-3.27.99-4.58,1.6-2.33,2.8-3.05c1.21-.72,2.63-1.09,4.28-1.09s3.07.36,4.28,1.09c1.21.72,2.14,1.74,2.8,3.05.66,1.31.99,2.84.99,4.58s-.33,3.26-.99,4.57c-.66,1.3-1.6,2.32-2.8,3.04-1.21.72-2.63,1.09-4.28,1.09Zm.02-3.18c.89,0,1.64-.25,2.24-.74.6-.49,1.05-1.16,1.34-1.99.3-.83.44-1.76.44-2.79s-.15-1.97-.44-2.8c-.3-.84-.75-1.51-1.34-2-.6-.5-1.35-.75-2.24-.75s-1.67.25-2.28.75c-.6.5-1.05,1.17-1.35,2-.3.84-.44,1.77-.44,2.8s.15,1.95.44,2.79c.3.83.75,1.5,1.35,1.99.6.49,1.36.74,2.28.74Z"/>
  </g>
</svg>